<?xml version="1.0" encoding="utf-8"?>
<!-- Generator: Adobe Illustrator 16.0.4, SVG Export Plug-In . SVG Version: 6.00 Build 0)  -->
<!DOCTYPE svg PUBLIC "-//W3C//DTD SVG 1.1//EN" "http://www.w3.org/Graphics/SVG/1.1/DTD/svg11.dtd">
<svg version="1.1" id="Layer_1" xmlns="http://www.w3.org/2000/svg" xmlns:xlink="http://www.w3.org/1999/xlink" x="0px" y="0px"
	 width="63.002px" height="191.741px" viewBox="0 0 63.002 191.741" enable-background="new 0 0 63.002 191.741"
	 xml:space="preserve">
<g>
	<path fill="#E6E7E8" d="M56.658,127.827H6.344c-3.502,0-6.344,2.85-6.344,6.35v51.222c0,3.496,2.842,6.342,6.344,6.342h50.314
		c3.496,0,6.344-2.846,6.344-6.342v-51.222C63.002,130.677,60.154,127.827,56.658,127.827z"/>
	<g>
		<path fill="#FFFFFF" d="M56.951,182.436c0,1.77-1.432,3.203-3.201,3.203H9.252c-1.77,0-3.207-1.434-3.207-3.203v-45.298
			c0-1.77,1.438-3.211,3.207-3.211H53.75c1.77,0,3.201,1.441,3.201,3.211V182.436z"/>
		<path fill="#D1D3D4" d="M53.75,188.043H9.252c-3.094,0-5.611-2.516-5.611-5.607v-45.298c0-3.098,2.518-5.615,5.611-5.615H53.75
			c3.094,0,5.607,2.518,5.607,5.615v45.298C59.357,185.528,56.844,188.043,53.75,188.043z M9.252,136.331
			c-0.441,0-0.801,0.363-0.801,0.807v45.298c0,0.441,0.359,0.797,0.801,0.797H53.75c0.441,0,0.797-0.355,0.797-0.797v-45.298
			c0-0.443-0.355-0.807-0.797-0.807H9.252z"/>
	</g>
	<path fill="#2ECC71" d="M48.295,143.403c-1.396-0.9-3.26-0.506-4.164,0.889l-15.619,24.113l-7.664-10.068H13.33l0.193,0.318
		l12.791,16.802c0.566,0.748,1.461,1.188,2.398,1.188h0.109c0.975-0.039,1.879-0.553,2.412-1.373l17.949-27.707
		C50.088,146.173,49.688,144.306,48.295,143.403z"/>
</g>
<g>
	<path fill="#E6E7E8" d="M56.658,0H6.344C2.842,0,0,2.85,0,6.35v51.222c0,3.496,2.842,6.342,6.344,6.342h50.314
		c3.496,0,6.344-2.846,6.344-6.342V6.35C63.002,2.85,60.154,0,56.658,0z"/>
	<g>
		<path fill="#FFFFFF" d="M56.951,54.609c0,1.77-1.432,3.203-3.201,3.203H9.252c-1.77,0-3.207-1.434-3.207-3.203V9.311
			c0-1.77,1.438-3.211,3.207-3.211H53.75c1.77,0,3.201,1.441,3.201,3.211V54.609z"/>
		<path fill="#D1D3D4" d="M53.75,60.216H9.252c-3.094,0-5.611-2.516-5.611-5.607V9.311c0-3.098,2.518-5.615,5.611-5.615H53.75
			c3.094,0,5.607,2.518,5.607,5.615v45.298C59.357,57.701,56.844,60.216,53.75,60.216z M9.252,8.504
			c-0.441,0-0.801,0.363-0.801,0.807v45.298c0,0.441,0.359,0.797,0.801,0.797H53.75c0.441,0,0.797-0.355,0.797-0.797V9.311
			c0-0.443-0.355-0.807-0.797-0.807H9.252z"/>
	</g>
</g>
</svg>
