<?xml version="1.0" encoding="utf-8"?>
<!-- Generator: Adobe Illustrator 16.0.4, SVG Export Plug-In . SVG Version: 6.00 Build 0)  -->
<!DOCTYPE svg PUBLIC "-//W3C//DTD SVG 1.1//EN" "http://www.w3.org/Graphics/SVG/1.1/DTD/svg11.dtd">
<svg version="1.1" id="Layer_1" xmlns="http://www.w3.org/2000/svg" xmlns:xlink="http://www.w3.org/1999/xlink" x="0px" y="0px"
	 width="675.715px" height="860.644px" viewBox="0 0 675.715 860.644" enable-background="new 0 0 675.715 860.644"
	 xml:space="preserve">
<polygon fill="#5AB6F9" points="675.715,182.724 566.809,73.659 13.916,601.457 273.343,860.644 675.715,860.644 "/>
<g>
	<path fill="#FFFFFF" d="M550.203,69.767H25.867C12.134,69.767,1,80.96,1,94.767v484.879c0,13.807,11.134,25,24.867,25h382.621
		v49.727l88.786-49.727h52.929c13.734,0,24.867-11.193,24.867-25V94.767C575.07,80.96,563.938,69.767,550.203,69.767z"/>
	<path fill="#3285E1" d="M407.488,656.079v-50.433H25.867c-14.263,0-25.867-11.664-25.867-26V94.767c0-14.336,11.604-26,25.867-26
		h524.336c14.264,0,25.867,11.664,25.867,26v484.879c0,14.336-11.604,26-25.867,26h-52.667L407.488,656.079z M25.867,70.767
		C12.707,70.767,2,81.533,2,94.767v484.879c0,13.233,10.707,24,23.867,24h383.621v49.021l87.525-49.021h53.189
		c13.16,0,23.867-10.767,23.867-24V94.767c0-13.233-10.707-24-23.867-24H25.867z"/>
</g>
<g>
	<circle fill="#2ECC71" cx="286.63" cy="97" r="96"/>
	<path fill="#FFFFFF" d="M286.63,194c-53.486,0-97-43.514-97-97s43.514-97,97-97s97,43.514,97,97S340.116,194,286.63,194z M286.63,2
		c-52.383,0-95,42.617-95,95s42.617,95,95,95s95-42.617,95-95S339.013,2,286.63,2z"/>
</g>
<path fill="#FFFFFF" d="M320.031,49.843v-7.104h-29.459h-37.344v7.104h-18.51l0.85,14.01c0.836,13.738,8.511,26.141,20.432,33.018
	l11.055,6.379c2.508,3.17,5.299,6.031,8.379,8.472l5.646,4.474l-0.025,8.969c-10.84,1.835-19.822,8.959-24.376,18.593h-6.901v7.505
	h73.74v-7.505h-6.941c-4.553-9.634-13.531-16.755-24.371-18.593l-0.027-8.969l5.647-4.474c3.079-2.44,5.872-5.302,8.378-8.472
	l11.056-6.379c11.921-6.877,19.595-19.279,20.431-33.018l0.852-14.01H320.031z M245.971,67.306l-0.443-7.289h7.701v1.189
	c0,8.699,1.523,17.138,4.321,24.812C250.794,82.12,246.445,75.092,245.971,67.306z M265.211,82.188
	c-2.479-8.908-2.566-18.102-2.643-26.215c-0.018-1.872,1.488-3.404,3.36-3.422c1.704-0.007,3.403,1.484,3.423,3.359
	c0.071,7.691,0.154,16.412,2.393,24.46c0.502,1.805-0.553,3.675-2.357,4.176c-0.305,0.085-0.609,0.126-0.911,0.126
	C266.99,84.673,265.627,83.689,265.211,82.188z M271.869,93.575c-1.951,0-3.533-1.582-3.533-3.533s1.582-3.534,3.533-3.534
	s3.533,1.583,3.533,3.534S273.82,93.575,271.869,93.575z M327.287,67.306c-0.474,7.786-4.822,14.814-11.578,18.712
	c2.799-7.674,4.322-16.112,4.322-24.812v-1.189h7.699L327.287,67.306z"/>
</svg>
