<?xml version="1.0" encoding="utf-8"?>
<!-- Generator: Adobe Illustrator 16.0.4, SVG Export Plug-In . SVG Version: 6.00 Build 0)  -->
<!DOCTYPE svg PUBLIC "-//W3C//DTD SVG 1.1//EN" "http://www.w3.org/Graphics/SVG/1.1/DTD/svg11.dtd">
<svg version="1.1" id="Layer_1" xmlns="http://www.w3.org/2000/svg" xmlns:xlink="http://www.w3.org/1999/xlink" x="0px" y="0px"
	 width="332.077px" height="388.901px" viewBox="0 0 332.077 388.901" enable-background="new 0 0 332.077 388.901"
	 xml:space="preserve">
<polygon fill="#5AB6F9" points="332.077,388.066 332.077,67.388 276.324,11.635 5.413,257.073 137.386,388.901 330.954,388.901 "/>
<g>
	<path fill="#3285E1" d="M257.231,0.499H25.5C11.692,0.499,0.5,12.799,0.5,27.972v212.893c0,15.173,11.192,27.471,25.001,27.471
		h177.408v21.022l37.536-21.022h16.786c13.809,0,25-12.298,25-27.471V27.972C282.231,12.799,271.04,0.499,257.231,0.499z"/>
	<path fill="#5AB6F9" d="M202.409,290.211v-21.375H25.5c-14.062,0-25.5-12.55-25.5-27.972V27.972C0,12.548,11.439,0,25.5,0h231.73
		c14.06,0,25.499,12.548,25.499,27.972v212.893c0,15.422-11.439,27.972-25.499,27.972h-16.657L202.409,290.211z M25.5,0.999
		C11.991,0.999,1,13.1,1,27.972v212.893c0,14.87,10.99,26.971,24.5,26.971H203.41v20.67l36.904-20.67h16.917
		c13.51,0,24.5-12.101,24.5-26.971V27.972c0-14.872-10.99-26.973-24.5-26.973H25.5z"/>
</g>
<path opacity="0.1" fill="#FFFFFF" d="M191.946,71.552V60.856h-44.36H91.361v10.696H63.488l1.278,21.095
	c1.254,20.685,12.812,39.368,30.769,49.716l16.645,9.609c3.778,4.765,7.976,9.074,12.614,12.75l8.504,6.737l-0.047,13.506
	c-16.315,2.763-29.845,13.491-36.699,28H86.161v11.295h111.031v-11.295h-10.453c-6.849-14.509-20.369-25.23-36.691-28l-0.041-13.506
	l8.496-6.737c4.639-3.675,8.845-7.984,12.623-12.75l16.646-9.609c17.946-10.348,29.504-29.031,30.758-49.716l1.287-21.095H191.946z
	 M80.426,97.853l-0.664-10.981h11.599v1.796c0,13.1,2.294,25.802,6.501,37.351C87.692,120.158,81.144,109.569,80.426,97.853z
	 M109.404,120.258c-3.742-13.411-3.867-27.254-3.985-39.475c-0.023-2.814,2.24-5.119,5.065-5.145
	c2.563-0.015,5.128,2.234,5.151,5.048c0.109,11.581,0.229,24.719,3.605,36.835c0.749,2.713-0.836,5.527-3.552,6.286
	c-0.458,0.129-0.915,0.191-1.37,0.191C112.079,123.999,110.026,122.514,109.404,120.258z M119.42,137.401
	c-2.935,0-5.316-2.38-5.316-5.317c0-2.941,2.382-5.323,5.316-5.323c2.943,0,5.326,2.382,5.326,5.323
	C124.747,135.021,122.364,137.401,119.42,137.401z M202.863,97.853c-0.708,11.716-7.25,22.305-17.426,28.165
	c4.212-11.548,6.509-24.251,6.509-37.351v-1.796h11.588L202.863,97.853z"/>
</svg>
