<?xml version="1.0" encoding="utf-8"?>
<!-- Generator: Adobe Illustrator 16.0.4, SVG Export Plug-In . SVG Version: 6.00 Build 0)  -->
<!DOCTYPE svg PUBLIC "-//W3C//DTD SVG 1.1//EN" "http://www.w3.org/Graphics/SVG/1.1/DTD/svg11.dtd">
<svg version="1.1" id="Layer_1" xmlns="http://www.w3.org/2000/svg" xmlns:xlink="http://www.w3.org/1999/xlink" x="0px" y="0px"
	 width="194px" height="194px" viewBox="0 0 194 194" enable-background="new 0 0 194 194" xml:space="preserve">
<g>
	<circle fill="#2ECC71" cx="97" cy="97" r="96"/>
	<path fill="#FFFFFF" d="M97,194c-53.486,0-97-43.515-97-97S43.514,0,97,0c53.486,0,97,43.514,97,97S150.486,194,97,194z M97,2
		C44.617,2,2,44.617,2,97s42.617,95,95,95c52.383,0,95-42.617,95-95S149.383,2,97,2z"/>
</g>
<path fill="#FFFFFF" d="M130.401,49.843v-7.104h-29.459H63.599v7.104h-18.51l0.85,14.01c0.836,13.738,8.511,26.141,20.432,33.018
	l11.055,6.378c2.508,3.17,5.299,6.031,8.379,8.473l5.646,4.473l-0.025,8.969c-10.84,1.836-19.822,8.959-24.376,18.594h-6.901v7.504
	h73.74v-7.504h-6.941c-4.553-9.635-13.531-16.756-24.371-18.594l-0.027-8.969l5.647-4.473c3.079-2.441,5.872-5.303,8.378-8.473
	l11.056-6.378c11.921-6.877,19.595-19.279,20.431-33.018l0.852-14.01H130.401z M56.341,67.306l-0.443-7.289h7.701v1.189
	c0,8.699,1.523,17.138,4.321,24.812C61.164,82.12,56.815,75.092,56.341,67.306z M75.581,82.188
	c-2.479-8.908-2.566-18.102-2.643-26.215c-0.018-1.872,1.488-3.404,3.36-3.422c1.704-0.007,3.403,1.484,3.423,3.359
	c0.071,7.691,0.154,16.412,2.393,24.46c0.502,1.805-0.553,3.675-2.357,4.176c-0.305,0.085-0.609,0.126-0.911,0.126
	C77.36,84.673,75.997,83.689,75.581,82.188z M82.239,93.575c-1.951,0-3.533-1.582-3.533-3.533s1.582-3.534,3.533-3.534
	s3.533,1.583,3.533,3.534S84.19,93.575,82.239,93.575z M137.657,67.306c-0.474,7.786-4.822,14.814-11.578,18.712
	c2.799-7.674,4.322-16.112,4.322-24.812v-1.189h7.699L137.657,67.306z"/>
</svg>
