<?xml version="1.0" encoding="utf-8"?>
<!-- Generator: Adobe Illustrator 16.0.4, SVG Export Plug-In . SVG Version: 6.00 Build 0)  -->
<!DOCTYPE svg PUBLIC "-//W3C//DTD SVG 1.1//EN" "http://www.w3.org/Graphics/SVG/1.1/DTD/svg11.dtd">
<svg version="1.1" id="Layer_1" xmlns="http://www.w3.org/2000/svg" xmlns:xlink="http://www.w3.org/1999/xlink" x="0px" y="0px"
	 width="194px" height="194px" viewBox="0 0 194 194" enable-background="new 0 0 194 194" xml:space="preserve">
<g>
	<circle fill="#2ECC71" cx="97" cy="97" r="96"/>
	<path fill="#FFFFFF" d="M97,194c-53.486,0-97-43.514-97-97S43.514,0,97,0c53.486,0,97,43.514,97,97S150.486,194,97,194z M97,2
		C44.617,2,2,44.617,2,97c0,52.383,42.617,95,95,95c52.383,0,95-42.617,95-95C192,44.617,149.383,2,97,2z"/>
</g>
<g>
	<path fill="#FFFFFF" d="M131.075,74.88V60.323c0-18.718-15.234-33.943-33.953-33.943c-18.717,0-33.941,15.226-33.941,33.943v14.555
		c-5.354,2.379-9.092,7.729-9.092,13.974v27.487h-0.262v27.98c0,8.453,6.85,15.301,15.297,15.301h0.262h55.215h0.26
		c8.455,0,15.312-6.848,15.312-15.301V88.852C140.173,82.608,136.433,77.26,131.075,74.88z M97.122,37.857
		c12.395,0,22.477,10.078,22.477,22.466v13.233H74.655V60.323C74.655,47.936,84.735,37.857,97.122,37.857z"/>
	<polygon fill="#2ECC71" points="127.856,103.442 120.343,95.916 87.478,128.788 78.503,119.811 70.993,127.331 87.419,143.756 
		87.423,143.745 87.485,143.807 	"/>
</g>
</svg>
