<?xml version="1.0" encoding="utf-8"?>
<!-- Generator: Adobe Illustrator 16.0.4, SVG Export Plug-In . SVG Version: 6.00 Build 0)  -->
<!DOCTYPE svg PUBLIC "-//W3C//DTD SVG 1.1//EN" "http://www.w3.org/Graphics/SVG/1.1/DTD/svg11.dtd">
<svg version="1.1" id="Layer_1" xmlns="http://www.w3.org/2000/svg" xmlns:xlink="http://www.w3.org/1999/xlink" x="0px" y="0px"
	 width="194px" height="194px" viewBox="0 0 194 194" enable-background="new 0 0 194 194" xml:space="preserve">
<g>
	<circle fill="#2ECC71" cx="97" cy="97" r="96"/>
	<path fill="#FFFFFF" d="M97,194c-53.486,0-97-43.514-97-97C0,43.514,43.514,0,97,0c53.486,0,97,43.514,97,97
		C194,150.486,150.486,194,97,194z M97,2C44.617,2,2,44.617,2,97c0,52.383,42.617,95,95,95c52.383,0,95-42.617,95-95
		C192,44.617,149.383,2,97,2z"/>
</g>
<path fill="#FFFFFF" d="M110.209,145.122H83.79c-1.889,0-3.419,1.524-3.419,3.413c0,1.899,1.53,3.425,3.419,3.425h26.419
	c1.89,0,3.425-1.525,3.425-3.425C113.634,146.646,112.099,145.122,110.209,145.122z M110.209,153.366H83.79
	c-1.889,0-3.419,1.524-3.419,3.424c0,1.889,1.53,3.424,3.419,3.424h26.419c1.89,0,3.425-1.535,3.425-3.424
	C113.634,154.891,112.099,153.366,110.209,153.366z M101.706,161.61h-9.41c-1.89,0-3.425,1.535-3.425,3.424s1.535,3.414,3.425,3.414
	h9.41c1.889,0,3.417-1.525,3.417-3.414S103.595,161.61,101.706,161.61z M97.003,53.61c-21.854,0-39.637,17.777-39.637,39.626
	c0,12.456,5.676,23.937,15.578,31.502c0,0,0.006,0,0.009,0.01c3.104,2.371,5.52,5.332,7.173,8.785
	c0.57,1.181,1.771,1.938,3.089,1.938h27.575c1.318,0,2.51-0.757,3.085-1.938c1.657-3.453,4.067-6.414,7.167-8.785
	c0.01-0.01,0.01-0.01,0.02-0.01c9.896-7.565,15.578-19.046,15.578-31.502C136.64,71.388,118.858,53.61,97.003,53.61z M75.03,125.456
	c0.227,0,0.451-0.029,0.663-0.078C75.481,125.427,75.257,125.456,75.03,125.456z M97.667,128.624h-0.576
	c-0.073-3.787-0.438-14.501-2.207-24.517c0.885-0.028,1.711-0.049,2.498-0.059c0.771,0.01,1.612,0.03,2.492,0.059
	C98.099,114.123,97.745,124.837,97.667,128.624z M118.286,125.378c0.227,0.049,0.453,0.078,0.681,0.078
	C118.734,125.456,118.513,125.427,118.286,125.378z M116.895,119.307c-0.005,0.011-0.01,0.011-0.01,0.011
	c-3.37,2.577-6.104,5.706-8.155,9.307h-4.855c0.09-8.225,0.926-17.216,2.312-24.517c3.512-0.216,7.005-0.993,9.611-3.267
	c5.559-4.849,5.401-11.225,2.431-14.775c-2.755-3.267-7.228-3.65-10.646-0.886c-2.883,2.331-4.93,7.123-6.375,12.74
	c-0.354,0-7.305,0-7.653,0c-1.456-5.617-3.502-10.409-6.384-12.74c-3.409-2.765-7.891-2.381-10.637,0.886
	c-2.976,3.551-3.138,9.927,2.421,14.775c2.616,2.273,6.104,3.051,9.611,3.267c1.387,7.301,2.225,16.292,2.312,24.517h-5.607
	c-2.046-3.591-4.771-6.719-8.142-9.297c-0.01,0-0.015-0.01-0.02-0.021c-8.199-6.255-12.902-15.759-12.902-26.07
	c0-18.071,14.708-32.789,32.795-32.789c18.082,0,32.789,14.718,32.789,32.789C129.792,103.548,125.085,113.052,116.895,119.307z
	 M107.69,97.703c1.094-3.757,2.371-6.522,3.804-7.684c0.792-0.639,1.396-0.62,1.958,0.051c0.891,1.061,1.164,3.551-1.736,6.069
	C110.751,96.985,109.319,97.458,107.69,97.703z M87.07,97.703c-1.632-0.245-3.058-0.718-4.033-1.563
	c-2.893-2.519-2.627-5.009-1.739-6.069c0.57-0.671,1.169-0.689,1.961-0.051C84.69,91.181,85.979,93.946,87.07,97.703z
	 M110.209,136.869H83.79c-1.889,0-3.419,1.534-3.419,3.433c0,1.889,1.53,3.413,3.419,3.413h26.419c1.89,0,3.425-1.524,3.425-3.413
	C113.634,138.403,112.099,136.869,110.209,136.869z M70.749,54.712c0.945,1.633,3.037,2.194,4.674,1.25
	c1.643-0.944,2.195-3.04,1.256-4.674l-8.89-15.406c-0.949-1.633-3.04-2.194-4.679-1.25c-1.638,0.945-2.198,3.031-1.254,4.674
	L70.749,54.712z M139.045,73.011l15.405-8.895c1.634-0.944,2.194-3.04,1.255-4.673c-0.95-1.633-3.04-2.204-4.679-1.249
	l-15.405,8.895c-1.634,0.934-2.193,3.029-1.249,4.662C135.316,73.395,137.412,73.955,139.045,73.011z M39.554,64.116l15.402,8.895
	c1.637,0.944,3.727,0.384,4.677-1.26c0.944-1.633,0.384-3.729-1.259-4.662l-15.401-8.895c-1.638-0.955-3.729-0.384-4.668,1.249
	C37.355,61.076,37.911,63.172,39.554,64.116z M118.577,55.962c1.639,0.944,3.729,0.383,4.674-1.25l8.897-15.406
	c0.944-1.643,0.384-3.729-1.255-4.674c-1.642-0.944-3.733-0.383-4.678,1.25l-8.893,15.406
	C116.379,52.922,116.938,55.018,118.577,55.962z M97.003,50.177c1.889,0,3.418-1.525,3.418-3.424V28.976
	c0-1.889-1.529-3.424-3.418-3.424c-1.895,0-3.428,1.535-3.428,3.424l0.008,17.777C93.583,48.651,95.108,50.177,97.003,50.177z
	 M154.45,122.545l-15.405-8.885c-1.633-0.944-3.729-0.384-4.673,1.249c-0.944,1.634-0.385,3.729,1.249,4.674l15.405,8.895
	c1.639,0.944,3.729,0.382,4.679-1.25C156.645,125.585,156.084,123.498,154.45,122.545z M161.358,89.912h-17.782
	c-1.894,0-3.419,1.524-3.419,3.413s1.525,3.424,3.419,3.424h17.782c1.889,0,3.422-1.535,3.422-3.424S163.247,89.912,161.358,89.912z
	 M54.956,113.66l-15.402,8.885c-1.633,0.953-2.198,3.04-1.249,4.683c0.939,1.632,3.035,2.194,4.668,1.25l15.401-8.895
	c1.643-0.944,2.203-3.04,1.259-4.674C58.683,113.276,56.593,112.716,54.956,113.66z M53.85,93.325c0-1.889-1.535-3.413-3.425-3.413
	H32.644c-1.895,0-3.424,1.524-3.424,3.413s1.529,3.424,3.424,3.424h17.781C52.314,96.749,53.85,95.214,53.85,93.325z"/>
</svg>
