<?xml version="1.0" encoding="utf-8"?>
<!-- Generator: Adobe Illustrator 16.0.4, SVG Export Plug-In . SVG Version: 6.00 Build 0)  -->
<!DOCTYPE svg PUBLIC "-//W3C//DTD SVG 1.1//EN" "http://www.w3.org/Graphics/SVG/1.1/DTD/svg11.dtd">
<svg version="1.1" id="Layer_1" xmlns="http://www.w3.org/2000/svg" xmlns:xlink="http://www.w3.org/1999/xlink" x="0px" y="0px"
	 width="72.723px" height="72.74px" viewBox="0 0 72.723 72.74" enable-background="new 0 0 72.723 72.74" xml:space="preserve">
<g>
	<path fill="#FFFFFF" d="M72.723,62.835c0,5.467-4.436,9.904-9.906,9.904H9.906C4.438,72.74,0,68.302,0,62.835V9.903
		C0,4.437,4.438,0,9.906,0h52.91c5.471,0,9.906,4.437,9.906,9.903V62.835z"/>
	<g>
		<path fill="#2ECC71" d="M64.34,20.649c0,1.579-1.053,2.86-2.352,2.86H10.73c-1.295,0-2.352-1.281-2.352-2.86l0,0
			c0-1.583,1.057-2.861,2.352-2.861h51.258C63.287,17.788,64.34,19.066,64.34,20.649L64.34,20.649z"/>
		<path fill="#2ECC71" d="M64.34,36.373c0,1.576-1.053,2.857-2.352,2.857H10.73c-1.295,0-2.352-1.281-2.352-2.857l0,0
			c0-1.583,1.057-2.863,2.352-2.863h51.258C63.287,33.51,64.34,34.79,64.34,36.373L64.34,36.373z"/>
		<path fill="#2ECC71" d="M64.34,52.093c0,1.58-1.053,2.861-2.352,2.861H10.73c-1.295,0-2.352-1.281-2.352-2.861l0,0
			c0-1.582,1.057-2.857,2.352-2.857h51.258C63.287,49.236,64.34,50.511,64.34,52.093L64.34,52.093z"/>
	</g>
</g>
</svg>
