<?xml version="1.0" encoding="utf-8"?>
<!-- Generator: Adobe Illustrator 16.0.4, SVG Export Plug-In . SVG Version: 6.00 Build 0)  -->
<!DOCTYPE svg PUBLIC "-//W3C//DTD SVG 1.1//EN" "http://www.w3.org/Graphics/SVG/1.1/DTD/svg11.dtd">
<svg version="1.1" id="Layer_1" xmlns="http://www.w3.org/2000/svg" xmlns:xlink="http://www.w3.org/1999/xlink" x="0px" y="0px"
	 width="43.461px" height="43.472px" viewBox="0 0 43.461 43.472" enable-background="new 0 0 43.461 43.472" xml:space="preserve">
<g>
	<path fill="#3285E1" d="M37.114,43.472H6.35c-3.5,0-6.35-2.849-6.35-6.351V6.35C0,2.849,2.85,0,6.35,0h30.764
		c3.502,0,6.348,2.849,6.348,6.35v30.771C43.461,40.624,40.616,43.472,37.114,43.472z"/>
	<g>
		<path fill="#FFFFFF" d="M37.995,12.596c0,0.918-0.611,1.662-1.365,1.662H6.832c-0.756,0-1.367-0.744-1.367-1.662l0,0
			c0-0.918,0.611-1.663,1.367-1.663h29.797C37.383,10.934,37.995,11.678,37.995,12.596L37.995,12.596z"/>
		<path fill="#FFFFFF" d="M37.995,21.737c0,0.918-0.611,1.662-1.365,1.662H6.832c-0.756,0-1.367-0.744-1.367-1.662l0,0
			c0-0.918,0.611-1.663,1.367-1.663h29.797C37.383,20.074,37.995,20.818,37.995,21.737L37.995,21.737z"/>
		<path fill="#FFFFFF" d="M37.995,30.877c0,0.918-0.611,1.662-1.365,1.662H6.832c-0.756,0-1.367-0.744-1.367-1.662l0,0
			c0-0.919,0.611-1.663,1.367-1.663h29.797C37.383,29.214,37.995,29.958,37.995,30.877L37.995,30.877z"/>
	</g>
</g>
</svg>
