<?xml version="1.0" encoding="utf-8"?>
<!-- Generator: Adobe Illustrator 16.0.4, SVG Export Plug-In . SVG Version: 6.00 Build 0)  -->
<!DOCTYPE svg PUBLIC "-//W3C//DTD SVG 1.1//EN" "http://www.w3.org/Graphics/SVG/1.1/DTD/svg11.dtd">
<svg version="1.1" id="Layer_1" xmlns="http://www.w3.org/2000/svg" xmlns:xlink="http://www.w3.org/1999/xlink" x="0px" y="0px"
	 width="33.381px" height="31.295px" viewBox="0 0 33.381 31.295" enable-background="new 0 0 33.381 31.295" xml:space="preserve">
<g>
	<path fill="#00A651" d="M29.209,2.086c0.564,0,1.102,0.109,1.613,0.326c0.51,0.217,0.955,0.517,1.336,0.896
		c0.379,0.38,0.678,0.826,0.896,1.337c0.217,0.51,0.326,1.048,0.326,1.613v20.864c0,0.587-0.109,1.13-0.326,1.63
		c-0.219,0.5-0.518,0.941-0.896,1.32c-0.381,0.381-0.826,0.68-1.336,0.896c-0.512,0.217-1.049,0.326-1.613,0.326H4.172
		c-0.566,0-1.104-0.109-1.613-0.326c-0.512-0.217-0.957-0.516-1.336-0.896c-0.381-0.379-0.68-0.82-0.898-1.32
		C0.107,28.252,0,27.709,0,27.123V6.258c0-0.564,0.107-1.103,0.324-1.613c0.219-0.511,0.518-0.957,0.898-1.337
		c0.379-0.379,0.824-0.679,1.336-0.896c0.51-0.217,1.047-0.326,1.613-0.326h4.172c0-0.282,0.055-0.554,0.164-0.814
		C8.617,1.01,8.762,0.788,8.947,0.603c0.184-0.185,0.408-0.332,0.668-0.44C9.877,0.054,10.148,0,10.432,0
		c0.281,0,0.555,0.054,0.814,0.163c0.262,0.109,0.482,0.255,0.668,0.44c0.184,0.185,0.33,0.407,0.439,0.668
		c0.109,0.26,0.164,0.533,0.164,0.814h8.344c0-0.282,0.057-0.554,0.164-0.814c0.109-0.261,0.254-0.484,0.441-0.668
		c0.184-0.185,0.406-0.332,0.668-0.44C22.395,0.054,22.668,0,22.949,0c0.283,0,0.555,0.054,0.814,0.163
		c0.264,0.109,0.482,0.255,0.668,0.44c0.186,0.185,0.332,0.407,0.441,0.668c0.107,0.26,0.16,0.533,0.16,0.814H29.209z
		 M29.209,27.123V6.258h-4.176c0,0.283-0.053,0.555-0.16,0.814c-0.109,0.262-0.256,0.484-0.441,0.67
		c-0.186,0.184-0.404,0.33-0.668,0.439c-0.26,0.109-0.531,0.162-0.814,0.162c-0.281,0-0.555-0.053-0.814-0.162
		c-0.262-0.109-0.484-0.256-0.668-0.439c-0.188-0.186-0.332-0.408-0.441-0.67c-0.107-0.26-0.164-0.531-0.164-0.814h-8.344
		c0,0.283-0.055,0.555-0.164,0.814c-0.109,0.262-0.256,0.484-0.439,0.67c-0.186,0.184-0.406,0.33-0.668,0.439
		c-0.26,0.109-0.533,0.162-0.814,0.162c-0.283,0-0.555-0.053-0.816-0.162c-0.26-0.109-0.484-0.256-0.668-0.439
		c-0.186-0.186-0.33-0.408-0.439-0.67c-0.109-0.26-0.164-0.531-0.164-0.814H4.172v20.864H29.209z M10.432,12.518
		c0.281,0,0.555,0.055,0.814,0.163c0.262,0.108,0.482,0.255,0.668,0.44c0.184,0.184,0.33,0.406,0.439,0.668
		c0.109,0.261,0.164,0.532,0.164,0.814c0,0.283-0.055,0.555-0.164,0.815s-0.256,0.483-0.439,0.668
		c-0.186,0.186-0.406,0.332-0.668,0.44c-0.26,0.108-0.533,0.162-0.814,0.162c-0.283,0-0.555-0.054-0.816-0.162
		c-0.26-0.108-0.484-0.255-0.668-0.44c-0.186-0.185-0.33-0.407-0.439-0.668s-0.164-0.532-0.164-0.815
		c0-0.282,0.055-0.554,0.164-0.814c0.109-0.262,0.254-0.484,0.439-0.668c0.184-0.186,0.408-0.332,0.668-0.44
		C9.877,12.573,10.148,12.518,10.432,12.518z M10.432,18.777c0.281,0,0.555,0.055,0.814,0.163c0.262,0.108,0.482,0.256,0.668,0.44
		c0.184,0.185,0.33,0.407,0.439,0.667c0.109,0.262,0.164,0.533,0.164,0.816c0,0.281-0.055,0.553-0.164,0.814
		s-0.256,0.484-0.439,0.668c-0.186,0.186-0.406,0.332-0.668,0.44c-0.26,0.108-0.533,0.163-0.814,0.163
		c-0.283,0-0.555-0.055-0.816-0.163c-0.26-0.108-0.484-0.255-0.668-0.44c-0.186-0.184-0.33-0.406-0.439-0.668
		s-0.164-0.533-0.164-0.814c0-0.283,0.055-0.555,0.164-0.816c0.109-0.26,0.254-0.482,0.439-0.667
		c0.184-0.185,0.408-0.332,0.668-0.44C9.877,18.832,10.148,18.777,10.432,18.777z M16.689,12.518c0.283,0,0.555,0.055,0.814,0.163
		c0.262,0.108,0.484,0.255,0.668,0.44c0.186,0.184,0.332,0.406,0.441,0.668c0.107,0.261,0.164,0.532,0.164,0.814
		c0,0.283-0.057,0.555-0.164,0.815c-0.109,0.261-0.256,0.483-0.441,0.668c-0.184,0.186-0.406,0.332-0.668,0.44
		c-0.26,0.108-0.531,0.162-0.814,0.162s-0.553-0.054-0.814-0.162s-0.484-0.255-0.67-0.44c-0.184-0.185-0.33-0.407-0.439-0.668
		c-0.107-0.261-0.162-0.532-0.162-0.815c0-0.282,0.055-0.554,0.162-0.814c0.109-0.262,0.256-0.484,0.439-0.668
		c0.186-0.186,0.408-0.332,0.67-0.44S16.406,12.518,16.689,12.518z M16.689,18.777c0.283,0,0.555,0.055,0.814,0.163
		c0.262,0.108,0.484,0.256,0.668,0.44c0.186,0.185,0.332,0.407,0.441,0.667c0.107,0.262,0.164,0.533,0.164,0.816
		c0,0.281-0.057,0.553-0.164,0.814c-0.109,0.262-0.256,0.484-0.441,0.668c-0.184,0.186-0.406,0.332-0.668,0.44
		c-0.26,0.108-0.531,0.163-0.814,0.163s-0.553-0.055-0.814-0.163s-0.484-0.255-0.67-0.44c-0.184-0.184-0.33-0.406-0.439-0.668
		c-0.107-0.262-0.162-0.533-0.162-0.814c0-0.283,0.055-0.555,0.162-0.816c0.109-0.26,0.256-0.482,0.439-0.667
		c0.186-0.185,0.408-0.332,0.67-0.44S16.406,18.777,16.689,18.777z M22.949,12.518c0.283,0,0.555,0.055,0.814,0.163
		c0.264,0.108,0.482,0.255,0.668,0.44c0.186,0.184,0.332,0.406,0.441,0.668c0.107,0.261,0.16,0.532,0.16,0.814
		c0,0.283-0.053,0.555-0.16,0.815c-0.109,0.261-0.256,0.483-0.441,0.668c-0.186,0.186-0.404,0.332-0.668,0.44
		c-0.26,0.108-0.531,0.162-0.814,0.162c-0.281,0-0.555-0.054-0.814-0.162c-0.262-0.108-0.484-0.255-0.668-0.44
		c-0.188-0.185-0.332-0.407-0.441-0.668c-0.107-0.261-0.164-0.532-0.164-0.815c0-0.282,0.057-0.554,0.164-0.814
		c0.109-0.262,0.254-0.484,0.441-0.668c0.184-0.186,0.406-0.332,0.668-0.44C22.395,12.573,22.668,12.518,22.949,12.518z
		 M22.949,18.777c0.283,0,0.555,0.055,0.814,0.163c0.264,0.108,0.482,0.256,0.668,0.44s0.332,0.407,0.441,0.667
		c0.107,0.262,0.16,0.533,0.16,0.816c0,0.281-0.053,0.553-0.16,0.814c-0.109,0.262-0.256,0.484-0.441,0.668
		c-0.186,0.186-0.404,0.332-0.668,0.44c-0.26,0.108-0.531,0.163-0.814,0.163c-0.281,0-0.555-0.055-0.814-0.163
		c-0.262-0.108-0.484-0.255-0.668-0.44c-0.188-0.184-0.332-0.406-0.441-0.668c-0.107-0.262-0.164-0.533-0.164-0.814
		c0-0.283,0.057-0.555,0.164-0.816c0.109-0.26,0.254-0.482,0.441-0.667c0.184-0.185,0.406-0.332,0.668-0.44
		C22.395,18.832,22.668,18.777,22.949,18.777z"/>
</g>
</svg>
