<?xml version="1.0" encoding="utf-8"?>
<!-- Generator: Adobe Illustrator 16.0.4, SVG Export Plug-In . SVG Version: 6.00 Build 0)  -->
<!DOCTYPE svg PUBLIC "-//W3C//DTD SVG 1.1//EN" "http://www.w3.org/Graphics/SVG/1.1/DTD/svg11.dtd">
<svg version="1.1" id="Layer_1" xmlns="http://www.w3.org/2000/svg" xmlns:xlink="http://www.w3.org/1999/xlink" x="0px" y="0px"
	 width="35.101px" height="32.498px" viewBox="0 0 35.101 32.498" enable-background="new 0 0 35.101 32.498" xml:space="preserve">
<path fill="#00A651" d="M19.594,19.477c-0.354-0.168-0.988-0.304-1.912-0.41l-0.444-2.783c0.53-0.065,0.945,0.077,1.246,0.422
	c0.161,0.188,0.279,0.425,0.352,0.711l1.004-0.16c-0.124-0.643-0.418-1.127-0.89-1.459c-0.467-0.328-1.085-0.457-1.851-0.392
	l-0.12-0.749l-0.543,0.088l0.121,0.761c-0.765,0.128-1.322,0.46-1.675,0.993c-0.35,0.535-0.479,1.088-0.388,1.669
	c0.104,0.647,0.383,1.125,0.834,1.424c0.452,0.305,1.106,0.47,1.958,0.493l0.495,3.115c-0.653,0.051-1.133-0.122-1.44-0.515
	c-0.172-0.22-0.315-0.587-0.428-1.104l-1.011,0.162c0.104,0.656,0.296,1.158,0.573,1.508c0.511,0.649,1.325,0.923,2.447,0.819
	l0.176,1.11l0.544-0.087l-0.178-1.11c0.681-0.186,1.183-0.427,1.511-0.722c0.592-0.53,0.808-1.304,0.646-2.317
	C20.505,20.241,20.165,19.753,19.594,19.477z M17.121,19.044c-0.439-0.015-0.803-0.111-1.089-0.285
	c-0.286-0.171-0.459-0.447-0.52-0.824c-0.049-0.312,0.011-0.628,0.177-0.95c0.169-0.318,0.503-0.528,1.002-0.631L17.121,19.044z
	 M19.565,22.215c-0.175,0.482-0.588,0.792-1.236,0.928l-0.478-3.009c0.496,0.054,0.858,0.137,1.082,0.252
	c0.39,0.188,0.625,0.526,0.7,1.002C19.682,21.688,19.659,21.965,19.565,22.215z M0,12.659l0.068,0.432l0,0l3.091,19.407
	l31.941-5.086l-3.09-19.405l-3.686,0.587l-0.774-4.867L23.396,5.06L22.591,0L0,12.659z M21.763,1.712l0.588,3.686L5.58,10.784
	L21.763,1.712z M18.58,26.492c-3.633,0.578-7.041-1.898-7.619-5.528c-0.578-3.627,1.895-7.04,5.524-7.618
	c3.63-0.577,7.042,1.899,7.62,5.525C24.683,22.5,22.208,25.915,18.58,26.492z M26.676,5.15l0.576,3.612L3.815,12.494L26.676,5.15z"
	/>
</svg>
