<?xml version="1.0" encoding="utf-8"?>
<!-- Generator: Adobe Illustrator 16.0.4, SVG Export Plug-In . SVG Version: 6.00 Build 0)  -->
<!DOCTYPE svg PUBLIC "-//W3C//DTD SVG 1.1//EN" "http://www.w3.org/Graphics/SVG/1.1/DTD/svg11.dtd">
<svg version="1.1" id="Layer_1" xmlns="http://www.w3.org/2000/svg" xmlns:xlink="http://www.w3.org/1999/xlink" x="0px" y="0px"
	 width="339.411px" height="339.412px" viewBox="0 0 339.411 339.412" enable-background="new 0 0 339.411 339.412"
	 xml:space="preserve">
<circle fill="#2ECC71" cx="169.706" cy="169.706" r="146.075"/>
<path fill="#FFFFFF" d="M169.707,0C75.98,0,0,75.98,0,169.706c0,93.727,75.98,169.706,169.707,169.706
	c93.725,0,169.705-75.979,169.705-169.706C339.411,75.98,263.432,0,169.707,0z M169.706,326.804
	c-86.762,0-157.098-70.335-157.098-157.098c0-86.762,70.336-157.098,157.098-157.098c86.764,0,157.098,70.336,157.098,157.098
	C326.804,256.469,256.47,326.804,169.706,326.804z"/>
<path fill="#2ECC71" d="M98.836,158.921"/>
<g>
	<defs>
		<circle id="SVGID_1_" cx="169.706" cy="169.706" r="146.075"/>
	</defs>
	<clipPath id="SVGID_2_">
		<use xlink:href="#SVGID_1_"  overflow="visible"/>
	</clipPath>
	<polygon clip-path="url(#SVGID_2_)" fill="#00A651" points="105.236,259.109 307.673,461.547 450.836,316.383 205.998,71.545 	"/>
</g>
<g>
	<path fill="#FFFFFF" d="M223.936,134.868v-23.167c0-29.789-24.245-54.02-54.036-54.02c-29.788,0-54.017,24.231-54.017,54.02v23.164
		c-8.521,3.786-14.47,12.301-14.47,22.238v43.746h-0.416v44.53c0,13.452,10.899,24.352,24.344,24.352h0.417h87.874h0.412
		c13.457,0,24.371-10.899,24.371-24.352v-88.275C238.415,147.168,232.462,138.656,223.936,134.868z"/>
	<path fill="#2ECC71" d="M169.9,75.948c19.727,0,35.771,16.039,35.771,35.753v21.062h-71.526v-21.062
		C134.145,91.986,150.186,75.948,169.9,75.948z"/>
	<polygon fill="#2ECC71" points="218.813,180.324 206.856,168.347 154.551,220.662 140.267,206.375 128.316,218.342 
		154.458,244.485 154.464,244.465 154.564,244.564 	"/>
</g>
</svg>
