<?xml version="1.0" encoding="utf-8"?>
<!-- Generator: Adobe Illustrator 16.0.4, SVG Export Plug-In . SVG Version: 6.00 Build 0)  -->
<!DOCTYPE svg PUBLIC "-//W3C//DTD SVG 1.1//EN" "http://www.w3.org/Graphics/SVG/1.1/DTD/svg11.dtd">
<svg version="1.1" id="Layer_1" xmlns="http://www.w3.org/2000/svg" xmlns:xlink="http://www.w3.org/1999/xlink" x="0px" y="0px"
	 width="28.078px" height="34.557px" viewBox="0 0 28.078 34.557" enable-background="new 0 0 28.078 34.557" xml:space="preserve">
<g>
	<path fill="#00A651" d="M25.209,0c0.383,0,0.748,0.072,1.098,0.219c0.348,0.146,0.658,0.354,0.928,0.625
		c0.27,0.27,0.479,0.578,0.625,0.928s0.219,0.715,0.219,1.096v28.822c0,0.383-0.072,0.746-0.219,1.098
		c-0.146,0.348-0.355,0.658-0.625,0.926c-0.27,0.271-0.58,0.479-0.928,0.625c-0.35,0.146-0.715,0.219-1.098,0.219H2.9
		c-0.402,0-0.781-0.078-1.129-0.234c-0.35-0.16-0.652-0.389-0.912-0.693c-0.258-0.303-0.467-0.682-0.623-1.131
		C0.078,32.049,0,31.533,0,30.947V2.16c0-0.227,0.078-0.461,0.236-0.709C0.393,1.203,0.602,0.973,0.859,0.76
		c0.26-0.215,0.562-0.395,0.912-0.541C2.119,0.072,2.498,0,2.9,0H25.209z M21.598,10.799c0.293,0,0.574-0.057,0.846-0.17
		c0.27-0.111,0.5-0.262,0.691-0.455c0.189-0.191,0.342-0.422,0.455-0.691s0.17-0.551,0.17-0.844c0-0.291-0.057-0.572-0.17-0.844
		c-0.113-0.27-0.266-0.5-0.455-0.691c-0.191-0.189-0.422-0.344-0.691-0.455c-0.271-0.113-0.553-0.168-0.846-0.168H6.48
		c-0.295,0-0.574,0.055-0.846,0.168c-0.27,0.111-0.5,0.266-0.691,0.455C4.752,7.295,4.602,7.525,4.488,7.795
		c-0.113,0.271-0.17,0.553-0.17,0.844c0,0.293,0.057,0.574,0.17,0.844s0.264,0.5,0.455,0.691c0.191,0.193,0.422,0.344,0.691,0.455
		c0.271,0.113,0.551,0.17,0.846,0.17H21.598z M21.598,19.438c0.293,0,0.574-0.055,0.846-0.168c0.27-0.113,0.5-0.264,0.691-0.457
		c0.189-0.189,0.342-0.42,0.455-0.689c0.113-0.271,0.17-0.553,0.17-0.844c0-0.293-0.057-0.574-0.17-0.846
		c-0.113-0.268-0.266-0.5-0.455-0.689c-0.191-0.191-0.422-0.344-0.691-0.457c-0.271-0.111-0.553-0.168-0.846-0.168H6.48
		c-0.295,0-0.574,0.057-0.846,0.168c-0.27,0.113-0.5,0.266-0.691,0.457c-0.191,0.189-0.342,0.422-0.455,0.689
		c-0.113,0.271-0.17,0.553-0.17,0.846c0,0.291,0.057,0.572,0.17,0.844c0.113,0.27,0.264,0.5,0.455,0.689
		c0.191,0.193,0.422,0.344,0.691,0.457c0.271,0.113,0.551,0.168,0.846,0.168H21.598z M15.119,28.078c0.293,0,0.572-0.057,0.844-0.17
		c0.27-0.111,0.5-0.262,0.691-0.455c0.191-0.191,0.344-0.422,0.455-0.691c0.113-0.271,0.17-0.551,0.17-0.844
		c0-0.291-0.057-0.574-0.17-0.844c-0.111-0.27-0.264-0.5-0.455-0.691c-0.191-0.189-0.422-0.344-0.691-0.455
		c-0.271-0.113-0.551-0.168-0.844-0.168H6.48c-0.295,0-0.574,0.055-0.846,0.168c-0.27,0.111-0.5,0.266-0.691,0.455
		c-0.191,0.191-0.342,0.422-0.455,0.691s-0.17,0.553-0.17,0.844c0,0.293,0.057,0.572,0.17,0.844c0.113,0.27,0.264,0.5,0.455,0.691
		c0.191,0.193,0.422,0.344,0.691,0.455c0.271,0.113,0.551,0.17,0.846,0.17H15.119z"/>
</g>
</svg>
