<?xml version="1.0" encoding="utf-8"?>
<!-- Generator: Adobe Illustrator 16.0.4, SVG Export Plug-In . SVG Version: 6.00 Build 0)  -->
<!DOCTYPE svg PUBLIC "-//W3C//DTD SVG 1.1//EN" "http://www.w3.org/Graphics/SVG/1.1/DTD/svg11.dtd">
<svg version="1.1" id="Layer_1" xmlns="http://www.w3.org/2000/svg" xmlns:xlink="http://www.w3.org/1999/xlink" x="0px" y="0px"
	 width="43.79px" height="38.316px" viewBox="0 0 43.79 38.316" enable-background="new 0 0 43.79 38.316" xml:space="preserve">
<g>
	<path fill="#FFFFFF" d="M38.3,12.466l0.016-0.149C38.316,5.512,32.803,0,26,0c-4.57,0-8.516,2.518-10.64,6.217
		c-0.922-0.46-1.943-0.743-3.044-0.743c-3.779,0-6.842,3.063-6.842,6.843l0.016,0.149C2.229,14.369,0,17.864,0,21.895
		c0,6.02,4.926,10.948,10.948,10.948h2.737v-2.737h-2.737c-4.528,0-8.211-3.683-8.211-8.211c0-2.87,1.583-5.574,4.132-7.061
		l1.357-0.797v-1.571l-0.013-0.283c0.069-2.202,1.884-3.972,4.103-3.972c0.604,0,1.216,0.154,1.82,0.454l2.312,1.154l1.285-2.239
		C19.476,4.549,22.566,2.736,26,2.736c5.228,0,9.488,4.207,9.579,9.414l-0.016,0.102v1.785l1.358,0.797
		c2.55,1.486,4.132,4.19,4.132,7.061c0,4.528-3.683,8.211-8.21,8.211h-2.737v2.737h2.737c6.021,0,10.947-4.929,10.947-10.948
		C43.79,17.864,41.561,14.369,38.3,12.466z"/>
	<polygon fill="#FFFFFF" points="21.895,13.685 13.685,24.632 19.158,24.632 19.158,38.316 24.632,38.316 24.632,24.632 
		30.106,24.632 	"/>
</g>
</svg>
