<?xml version="1.0" encoding="utf-8"?>
<!-- Generator: Adobe Illustrator 16.0.4, SVG Export Plug-In . SVG Version: 6.00 Build 0)  -->
<!DOCTYPE svg PUBLIC "-//W3C//DTD SVG 1.1//EN" "http://www.w3.org/Graphics/SVG/1.1/DTD/svg11.dtd">
<svg version="1.1" id="Layer_1" xmlns="http://www.w3.org/2000/svg" xmlns:xlink="http://www.w3.org/1999/xlink" x="0px" y="0px"
	 width="33.131px" height="33.198px" viewBox="0 0 33.131 33.198" enable-background="new 0 0 33.131 33.198" xml:space="preserve">
<g>
	<path fill="#00A651" d="M23.406,19.645l9.467,9.467c0.086,0.088,0.148,0.189,0.193,0.309s0.064,0.242,0.064,0.373
		c0,0.129-0.02,0.248-0.064,0.357c-0.045,0.107-0.107,0.215-0.193,0.322l-2.465,2.465c-0.086,0.086-0.189,0.15-0.309,0.193
		c-0.119,0.045-0.238,0.066-0.355,0.066c-0.119,0-0.238-0.021-0.357-0.066c-0.119-0.043-0.223-0.107-0.307-0.193l-9.467-9.467
		c-0.088-0.086-0.195-0.162-0.324-0.227c-0.131-0.064-0.266-0.109-0.406-0.129c-0.141-0.021-0.279-0.029-0.422-0.018
		c-0.141,0.012-0.264,0.037-0.373,0.082c-0.732,0.324-1.389,0.584-1.959,0.777c-0.574,0.193-1.195,0.373-1.865,0.535
		s-1.309,0.242-1.914,0.242c-1.707,0-3.311-0.322-4.812-0.971c-1.504-0.648-2.811-1.535-3.922-2.658
		c-1.113-1.125-1.994-2.438-2.643-3.941C0.324,15.665,0,14.059,0,12.352c0-1.709,0.324-3.312,0.973-4.814
		c0.648-1.503,1.529-2.811,2.643-3.924c1.111-1.111,2.418-1.992,3.922-2.641C9.039,0.324,10.643,0,12.35,0
		c1.688,0,3.281,0.324,4.783,0.974c1.502,0.648,2.809,1.529,3.924,2.641c1.111,1.113,1.992,2.421,2.641,3.924
		c0.648,1.501,0.973,3.105,0.973,4.814c0,0.627-0.08,1.275-0.242,1.945c-0.164,0.67-0.336,1.293-0.521,1.863
		c-0.182,0.572-0.436,1.227-0.762,1.961c-0.064,0.131-0.1,0.266-0.111,0.406s0,0.275,0.031,0.404
		c0.035,0.129,0.076,0.262,0.129,0.391C23.248,19.452,23.318,19.561,23.406,19.645z M12.35,19.03c0.908,0,1.768-0.178,2.578-0.535
		c0.811-0.355,1.512-0.832,2.107-1.426s1.064-1.297,1.41-2.107c0.348-0.811,0.52-1.68,0.52-2.609c0-0.906-0.172-1.768-0.52-2.578
		c-0.346-0.809-0.814-1.518-1.41-2.122c-0.596-0.605-1.297-1.082-2.107-1.426c-0.811-0.347-1.67-0.521-2.578-0.521
		c-0.928,0-1.797,0.174-2.609,0.521C8.93,6.57,8.229,7.047,7.633,7.652C7.039,8.256,6.564,8.965,6.207,9.774
		c-0.355,0.811-0.535,1.672-0.535,2.578c0,0.93,0.18,1.799,0.535,2.609c0.357,0.811,0.832,1.514,1.426,2.107
		c0.596,0.594,1.297,1.07,2.107,1.426C10.553,18.852,11.422,19.03,12.35,19.03z"/>
</g>
</svg>
