<?xml version="1.0" encoding="utf-8"?>
<!-- Generator: Adobe Illustrator 16.0.4, SVG Export Plug-In . SVG Version: 6.00 Build 0)  -->
<!DOCTYPE svg PUBLIC "-//W3C//DTD SVG 1.1//EN" "http://www.w3.org/Graphics/SVG/1.1/DTD/svg11.dtd">
<svg version="1.1" id="Layer_1" xmlns="http://www.w3.org/2000/svg" xmlns:xlink="http://www.w3.org/1999/xlink" x="0px" y="0px"
	 width="21.623px" height="33.146px" viewBox="0 0 21.623 33.146" enable-background="new 0 0 21.623 33.146" xml:space="preserve">
<path fill="#FFFFFF" d="M21.623,10.813C21.623,4.836,16.781,0,10.812,0C4.842,0,0,4.836,0,10.813c0,0.102,0.012,0.205,0.018,0.307
	c0,0.007-0.006,0.007-0.006,0.007c0,0.241,0.016,0.494,0.043,0.754c0.006,0.048,0.014,0.097,0.018,0.146
	c0.029,0.217,0.061,0.447,0.107,0.683c0.027,0.162,0.057,0.325,0.092,0.488c1.652,7.323,10.541,19.949,10.541,19.949
	s7.982-11.557,10.225-18.844c0.18-0.532,0.318-1.075,0.416-1.631c0.107-0.556,0.17-1.074,0.17-1.545c0-0.03-0.008-0.061-0.008-0.098
	C21.615,10.958,21.623,10.885,21.623,10.813z M10.812,16.452c-3.162,0-5.723-2.561-5.723-5.725c0-3.157,2.561-5.723,5.723-5.723
	c3.16,0,5.725,2.565,5.725,5.723C16.537,13.892,13.973,16.452,10.812,16.452z"/>
</svg>
