<?xml version="1.0" encoding="utf-8"?>
<!-- Generator: Adobe Illustrator 16.0.4, SVG Export Plug-In . SVG Version: 6.00 Build 0)  -->
<!DOCTYPE svg PUBLIC "-//W3C//DTD SVG 1.1//EN" "http://www.w3.org/Graphics/SVG/1.1/DTD/svg11.dtd">
<svg version="1.1" id="Layer_1" xmlns="http://www.w3.org/2000/svg" xmlns:xlink="http://www.w3.org/1999/xlink" x="0px" y="0px"
	 width="28.079px" height="34.557px" viewBox="0 0 28.079 34.557" enable-background="new 0 0 28.079 34.557" xml:space="preserve">
<g>
	<path fill="#FFFFFF" d="M25.209,0c0.384,0,0.748,0.072,1.099,0.219c0.348,0.146,0.657,0.354,0.927,0.625
		c0.271,0.27,0.479,0.578,0.625,0.928s0.22,0.715,0.22,1.096v28.822c0,0.383-0.073,0.746-0.22,1.098
		c-0.146,0.348-0.354,0.658-0.625,0.926c-0.27,0.271-0.579,0.479-0.927,0.625c-0.351,0.146-0.715,0.219-1.099,0.219H2.901
		c-0.403,0-0.781-0.078-1.13-0.234c-0.349-0.16-0.652-0.389-0.911-0.693c-0.258-0.303-0.467-0.682-0.623-1.131
		C0.079,32.049,0,31.533,0,30.947V2.16c0-0.227,0.079-0.461,0.237-0.709C0.394,1.203,0.603,0.973,0.86,0.76
		c0.259-0.215,0.562-0.395,0.911-0.541S2.498,0,2.901,0H25.209z M21.599,10.799c0.293,0,0.574-0.057,0.845-0.17
		c0.27-0.111,0.5-0.262,0.691-0.455c0.19-0.191,0.342-0.422,0.456-0.691c0.112-0.27,0.169-0.551,0.169-0.844
		c0-0.291-0.057-0.572-0.169-0.844c-0.114-0.27-0.266-0.5-0.456-0.691c-0.191-0.189-0.422-0.344-0.691-0.455
		c-0.271-0.113-0.552-0.168-0.845-0.168H6.48c-0.294,0-0.574,0.055-0.845,0.168C5.366,6.76,5.135,6.914,4.944,7.104
		C4.753,7.295,4.602,7.525,4.488,7.795C4.376,8.066,4.319,8.348,4.319,8.639c0,0.293,0.057,0.574,0.169,0.844
		c0.113,0.27,0.265,0.5,0.456,0.691c0.19,0.193,0.422,0.344,0.691,0.455c0.271,0.113,0.551,0.17,0.845,0.17H21.599z M21.599,19.438
		c0.293,0,0.574-0.055,0.845-0.168c0.27-0.113,0.5-0.264,0.691-0.457c0.19-0.189,0.342-0.42,0.456-0.689
		c0.112-0.271,0.169-0.553,0.169-0.844c0-0.293-0.057-0.574-0.169-0.846c-0.114-0.268-0.266-0.5-0.456-0.689
		c-0.191-0.191-0.422-0.344-0.691-0.457c-0.271-0.111-0.552-0.168-0.845-0.168H6.48c-0.294,0-0.574,0.057-0.845,0.168
		c-0.27,0.113-0.501,0.266-0.691,0.457c-0.191,0.189-0.343,0.422-0.456,0.689c-0.112,0.271-0.169,0.553-0.169,0.846
		c0,0.291,0.057,0.572,0.169,0.844c0.113,0.27,0.265,0.5,0.456,0.689c0.19,0.193,0.422,0.344,0.691,0.457
		c0.271,0.113,0.551,0.168,0.845,0.168H21.599z M15.119,28.078c0.293,0,0.573-0.057,0.844-0.17c0.271-0.111,0.501-0.262,0.691-0.455
		c0.191-0.191,0.344-0.422,0.456-0.691c0.112-0.271,0.169-0.551,0.169-0.844c0-0.291-0.057-0.574-0.169-0.844
		s-0.265-0.5-0.456-0.691c-0.19-0.189-0.421-0.344-0.691-0.455c-0.271-0.113-0.551-0.168-0.844-0.168H6.48
		c-0.294,0-0.574,0.055-0.845,0.168c-0.27,0.111-0.501,0.266-0.691,0.455c-0.191,0.191-0.343,0.422-0.456,0.691
		c-0.112,0.27-0.169,0.553-0.169,0.844c0,0.293,0.057,0.572,0.169,0.844c0.113,0.27,0.265,0.5,0.456,0.691
		c0.19,0.193,0.422,0.344,0.691,0.455c0.271,0.113,0.551,0.17,0.845,0.17H15.119z"/>
</g>
</svg>
