<?xml version="1.0" encoding="utf-8"?>
<!-- Generator: Adobe Illustrator 16.0.4, SVG Export Plug-In . SVG Version: 6.00 Build 0)  -->
<!DOCTYPE svg PUBLIC "-//W3C//DTD SVG 1.1//EN" "http://www.w3.org/Graphics/SVG/1.1/DTD/svg11.dtd">
<svg version="1.1" id="Layer_1" xmlns="http://www.w3.org/2000/svg" xmlns:xlink="http://www.w3.org/1999/xlink" x="0px" y="0px"
	 width="36.398px" height="31.849px" viewBox="0 0 36.398 31.849" enable-background="new 0 0 36.398 31.849" xml:space="preserve">
<g>
	<path fill="#00A651" d="M31.835,10.361l0.014-0.123C31.849,4.581,27.267,0,21.611,0c-3.799,0-7.078,2.093-8.842,5.168
		c-0.768-0.383-1.617-0.618-2.531-0.618c-3.143,0-5.688,2.545-5.688,5.688l0.014,0.123C1.853,11.943,0,14.849,0,18.199
		c0,5.004,4.097,9.1,9.099,9.1h2.275v-2.273H9.099c-3.764,0-6.824-3.062-6.824-6.826c0-2.385,1.314-4.633,3.434-5.869l1.129-0.662
		v-1.307L6.83,10.126c0.057-1.83,1.562-3.301,3.408-3.301c0.502,0,1.012,0.129,1.514,0.377l1.92,0.959l1.07-1.861
		c1.449-2.519,4.018-4.025,6.869-4.025c4.346,0,7.887,3.496,7.963,7.824l-0.014,0.084v1.484l1.129,0.662
		c2.119,1.236,3.434,3.484,3.434,5.869c0,3.764-3.061,6.826-6.824,6.826h-2.275v2.273h2.275c5.008,0,9.1-4.096,9.1-9.1
		C36.398,14.849,34.546,11.943,31.835,10.361z"/>
	<polygon fill="#00A651" points="18.199,11.375 11.375,20.474 15.923,20.474 15.923,31.849 20.474,31.849 20.474,20.474 
		25.023,20.474 	"/>
</g>
</svg>
