<?xml version="1.0" encoding="utf-8"?>
<!-- Generator: Adobe Illustrator 16.0.4, SVG Export Plug-In . SVG Version: 6.00 Build 0)  -->
<!DOCTYPE svg PUBLIC "-//W3C//DTD SVG 1.1//EN" "http://www.w3.org/Graphics/SVG/1.1/DTD/svg11.dtd">
<svg version="1.1" id="Layer_1" xmlns="http://www.w3.org/2000/svg" xmlns:xlink="http://www.w3.org/1999/xlink" x="0px" y="0px"
	 width="35.102px" height="32.498px" viewBox="0 0 35.102 32.498" enable-background="new 0 0 35.102 32.498" xml:space="preserve">
<path fill="#FFFFFF" d="M19.594,19.477c-0.354-0.168-0.988-0.303-1.912-0.41l-0.443-2.783c0.529-0.064,0.945,0.078,1.246,0.422
	c0.16,0.189,0.279,0.426,0.352,0.711l1.004-0.16c-0.125-0.643-0.418-1.127-0.891-1.459c-0.467-0.328-1.084-0.457-1.85-0.391
	l-0.121-0.75l-0.543,0.088l0.121,0.762c-0.764,0.127-1.322,0.459-1.674,0.992c-0.35,0.535-0.48,1.088-0.389,1.67
	c0.104,0.646,0.383,1.125,0.834,1.424c0.453,0.305,1.107,0.469,1.959,0.492l0.494,3.115c-0.652,0.051-1.133-0.121-1.439-0.514
	c-0.172-0.221-0.316-0.588-0.428-1.105l-1.012,0.162c0.104,0.656,0.297,1.158,0.574,1.508c0.51,0.65,1.324,0.924,2.447,0.82
	L18.1,25.18l0.543-0.086l-0.178-1.111c0.682-0.186,1.184-0.426,1.512-0.721c0.592-0.531,0.807-1.305,0.645-2.318
	C20.506,20.242,20.166,19.754,19.594,19.477z M17.121,19.045c-0.439-0.016-0.803-0.111-1.088-0.285
	c-0.287-0.172-0.459-0.447-0.52-0.824c-0.049-0.312,0.01-0.629,0.176-0.951c0.17-0.318,0.504-0.527,1.002-0.631L17.121,19.045z
	 M19.566,22.215c-0.176,0.482-0.588,0.793-1.236,0.928l-0.479-3.008c0.496,0.053,0.859,0.137,1.082,0.252
	c0.391,0.188,0.625,0.525,0.701,1.002C19.682,21.688,19.66,21.965,19.566,22.215z M0,12.66l0.068,0.432l0,0L3.16,32.498
	l31.941-5.086l-3.09-19.404l-3.686,0.586l-0.775-4.867l-4.154,1.334L22.592,0L0,12.66z M21.764,1.713l0.588,3.686L5.58,10.785
	L21.764,1.713z M18.58,26.492c-3.633,0.578-7.041-1.898-7.619-5.527c-0.578-3.627,1.895-7.041,5.525-7.619
	c3.629-0.576,7.041,1.9,7.619,5.525C24.684,22.5,22.209,25.916,18.58,26.492z M26.676,5.15l0.576,3.613l-23.436,3.73L26.676,5.15z"
	/>
</svg>
