<?xml version="1.0" encoding="utf-8"?>
<!-- Generator: Adobe Illustrator 16.0.4, SVG Export Plug-In . SVG Version: 6.00 Build 0)  -->
<!DOCTYPE svg PUBLIC "-//W3C//DTD SVG 1.1//EN" "http://www.w3.org/Graphics/SVG/1.1/DTD/svg11.dtd">
<svg version="1.1" id="Layer_1" xmlns="http://www.w3.org/2000/svg" xmlns:xlink="http://www.w3.org/1999/xlink" x="0px" y="0px"
	 width="33.381px" height="31.295px" viewBox="0 0 33.381 31.295" enable-background="new 0 0 33.381 31.295" xml:space="preserve">
<g>
	<path fill="#FFFFFF" d="M29.209,2.086c0.564,0,1.102,0.108,1.613,0.326c0.51,0.218,0.955,0.517,1.336,0.896
		c0.379,0.38,0.678,0.825,0.896,1.337c0.217,0.51,0.326,1.049,0.326,1.613v20.863c0,0.588-0.109,1.131-0.326,1.631
		c-0.219,0.5-0.518,0.94-0.896,1.32c-0.381,0.38-0.826,0.679-1.336,0.896c-0.512,0.218-1.049,0.326-1.613,0.326H4.172
		c-0.566,0-1.104-0.108-1.613-0.326c-0.512-0.217-0.957-0.516-1.336-0.896c-0.381-0.38-0.68-0.82-0.898-1.32
		C0.107,28.253,0,27.71,0,27.122V6.259c0-0.564,0.107-1.104,0.324-1.613c0.219-0.512,0.518-0.957,0.898-1.337
		c0.379-0.38,0.824-0.679,1.336-0.896c0.51-0.218,1.047-0.326,1.613-0.326h4.172c0-0.282,0.055-0.554,0.164-0.814
		s0.254-0.483,0.439-0.669c0.184-0.185,0.408-0.331,0.668-0.439C9.877,0.054,10.148,0,10.432,0c0.281,0,0.555,0.054,0.814,0.163
		c0.262,0.108,0.482,0.255,0.668,0.439c0.184,0.186,0.33,0.408,0.439,0.669s0.164,0.532,0.164,0.814h8.344
		c0-0.282,0.057-0.554,0.164-0.814c0.109-0.261,0.254-0.483,0.441-0.669c0.184-0.185,0.406-0.331,0.668-0.439
		C22.395,0.054,22.668,0,22.949,0c0.283,0,0.555,0.054,0.814,0.163c0.264,0.108,0.482,0.255,0.668,0.439
		c0.186,0.186,0.332,0.408,0.441,0.669c0.107,0.261,0.16,0.532,0.16,0.814H29.209z M29.209,27.122V6.259h-4.176
		c0,0.283-0.053,0.555-0.16,0.814c-0.109,0.261-0.256,0.484-0.441,0.669s-0.404,0.331-0.668,0.44
		c-0.26,0.109-0.531,0.162-0.814,0.162c-0.281,0-0.555-0.053-0.814-0.162c-0.262-0.109-0.484-0.256-0.668-0.44
		c-0.188-0.185-0.332-0.408-0.441-0.669c-0.107-0.26-0.164-0.531-0.164-0.814h-8.344c0,0.283-0.055,0.555-0.164,0.814
		c-0.109,0.261-0.256,0.484-0.439,0.669c-0.186,0.185-0.406,0.331-0.668,0.44c-0.26,0.109-0.533,0.162-0.814,0.162
		c-0.283,0-0.555-0.053-0.816-0.162c-0.26-0.109-0.484-0.256-0.668-0.44c-0.186-0.185-0.33-0.408-0.439-0.669
		c-0.109-0.26-0.164-0.531-0.164-0.814H4.172v20.863H29.209z M10.432,12.518c0.281,0,0.555,0.055,0.814,0.163
		c0.262,0.109,0.482,0.256,0.668,0.44c0.184,0.185,0.33,0.407,0.439,0.668s0.164,0.532,0.164,0.814c0,0.283-0.055,0.555-0.164,0.815
		s-0.256,0.484-0.439,0.668c-0.186,0.186-0.406,0.332-0.668,0.44c-0.26,0.108-0.533,0.163-0.814,0.163
		c-0.283,0-0.555-0.055-0.816-0.163c-0.26-0.108-0.484-0.255-0.668-0.44c-0.186-0.184-0.33-0.407-0.439-0.668
		s-0.164-0.532-0.164-0.815c0-0.282,0.055-0.554,0.164-0.814s0.254-0.483,0.439-0.668c0.184-0.185,0.408-0.331,0.668-0.44
		C9.877,12.572,10.148,12.518,10.432,12.518z M10.432,18.776c0.281,0,0.555,0.055,0.814,0.164c0.262,0.107,0.482,0.255,0.668,0.439
		c0.184,0.185,0.33,0.407,0.439,0.668c0.109,0.262,0.164,0.533,0.164,0.816c0,0.281-0.055,0.553-0.164,0.814
		c-0.109,0.261-0.256,0.484-0.439,0.668c-0.186,0.186-0.406,0.332-0.668,0.439c-0.26,0.109-0.533,0.164-0.814,0.164
		c-0.283,0-0.555-0.055-0.816-0.164c-0.26-0.107-0.484-0.254-0.668-0.439c-0.186-0.184-0.33-0.407-0.439-0.668
		c-0.109-0.262-0.164-0.533-0.164-0.814c0-0.283,0.055-0.555,0.164-0.816c0.109-0.261,0.254-0.483,0.439-0.668
		c0.184-0.185,0.408-0.332,0.668-0.439C9.877,18.831,10.148,18.776,10.432,18.776z M16.689,12.518c0.283,0,0.555,0.055,0.814,0.163
		c0.262,0.109,0.484,0.256,0.668,0.44c0.186,0.185,0.332,0.407,0.441,0.668c0.107,0.261,0.164,0.532,0.164,0.814
		c0,0.283-0.057,0.555-0.164,0.815c-0.109,0.261-0.256,0.484-0.441,0.668c-0.184,0.186-0.406,0.332-0.668,0.44
		c-0.26,0.108-0.531,0.163-0.814,0.163s-0.553-0.055-0.814-0.163s-0.484-0.255-0.67-0.44c-0.184-0.184-0.33-0.407-0.439-0.668
		c-0.107-0.261-0.162-0.532-0.162-0.815c0-0.282,0.055-0.554,0.162-0.814c0.109-0.261,0.256-0.483,0.439-0.668
		c0.186-0.185,0.408-0.331,0.67-0.44C16.137,12.572,16.406,12.518,16.689,12.518z M16.689,18.776c0.283,0,0.555,0.055,0.814,0.164
		c0.262,0.107,0.484,0.255,0.668,0.439c0.186,0.185,0.332,0.407,0.441,0.668c0.107,0.262,0.164,0.533,0.164,0.816
		c0,0.281-0.057,0.553-0.164,0.814c-0.109,0.261-0.256,0.484-0.441,0.668c-0.184,0.186-0.406,0.332-0.668,0.439
		c-0.26,0.109-0.531,0.164-0.814,0.164s-0.553-0.055-0.814-0.164c-0.262-0.107-0.484-0.254-0.67-0.439
		c-0.184-0.184-0.33-0.407-0.439-0.668c-0.107-0.262-0.162-0.533-0.162-0.814c0-0.283,0.055-0.555,0.162-0.816
		c0.109-0.261,0.256-0.483,0.439-0.668c0.186-0.185,0.408-0.332,0.67-0.439C16.137,18.831,16.406,18.776,16.689,18.776z
		 M22.949,12.518c0.283,0,0.555,0.055,0.814,0.163c0.264,0.109,0.482,0.256,0.668,0.44s0.332,0.407,0.441,0.668
		c0.107,0.261,0.16,0.532,0.16,0.814c0,0.283-0.053,0.555-0.16,0.815c-0.109,0.261-0.256,0.484-0.441,0.668
		c-0.186,0.186-0.404,0.332-0.668,0.44c-0.26,0.108-0.531,0.163-0.814,0.163c-0.281,0-0.555-0.055-0.814-0.163
		c-0.262-0.108-0.484-0.255-0.668-0.44c-0.188-0.184-0.332-0.407-0.441-0.668c-0.107-0.261-0.164-0.532-0.164-0.815
		c0-0.282,0.057-0.554,0.164-0.814c0.109-0.261,0.254-0.483,0.441-0.668c0.184-0.185,0.406-0.331,0.668-0.44
		C22.395,12.572,22.668,12.518,22.949,12.518z M22.949,18.776c0.283,0,0.555,0.055,0.814,0.164c0.264,0.107,0.482,0.255,0.668,0.439
		s0.332,0.407,0.441,0.668c0.107,0.262,0.16,0.533,0.16,0.816c0,0.281-0.053,0.553-0.16,0.814c-0.109,0.261-0.256,0.484-0.441,0.668
		c-0.186,0.186-0.404,0.332-0.668,0.439c-0.26,0.109-0.531,0.164-0.814,0.164c-0.281,0-0.555-0.055-0.814-0.164
		c-0.262-0.107-0.484-0.254-0.668-0.439c-0.188-0.184-0.332-0.407-0.441-0.668c-0.107-0.262-0.164-0.533-0.164-0.814
		c0-0.283,0.057-0.555,0.164-0.816c0.109-0.261,0.254-0.483,0.441-0.668c0.184-0.185,0.406-0.332,0.668-0.439
		C22.395,18.831,22.668,18.776,22.949,18.776z"/>
</g>
</svg>
