<?xml version="1.0" encoding="utf-8"?>
<!-- Generator: Adobe Illustrator 16.0.4, SVG Export Plug-In . SVG Version: 6.00 Build 0)  -->
<!DOCTYPE svg PUBLIC "-//W3C//DTD SVG 1.1//EN" "http://www.w3.org/Graphics/SVG/1.1/DTD/svg11.dtd">
<svg version="1.1" id="Layer_1" xmlns="http://www.w3.org/2000/svg" xmlns:xlink="http://www.w3.org/1999/xlink" x="0px" y="0px"
	 width="33.129px" height="33.197px" viewBox="0 0 33.129 33.197" enable-background="new 0 0 33.129 33.197" xml:space="preserve">
<g>
	<path fill="#FFFFFF" d="M23.404,19.646l9.467,9.467c0.086,0.086,0.15,0.188,0.193,0.307c0.045,0.119,0.064,0.242,0.064,0.375
		c0,0.129-0.02,0.248-0.064,0.355c-0.043,0.109-0.107,0.215-0.193,0.322l-2.465,2.467c-0.084,0.084-0.188,0.148-0.307,0.193
		c-0.119,0.043-0.238,0.064-0.357,0.064s-0.238-0.021-0.355-0.064c-0.119-0.045-0.223-0.109-0.309-0.193l-9.467-9.467
		c-0.088-0.086-0.195-0.162-0.324-0.227c-0.129-0.066-0.264-0.109-0.404-0.131c-0.143-0.021-0.281-0.027-0.424-0.018
		c-0.139,0.012-0.264,0.039-0.371,0.082c-0.734,0.324-1.391,0.584-1.961,0.777c-0.572,0.195-1.193,0.373-1.865,0.535
		c-0.67,0.162-1.307,0.244-1.912,0.244c-1.707,0-3.312-0.324-4.814-0.973s-2.811-1.535-3.922-2.658
		C2.5,19.982,1.619,18.67,0.971,17.166C0.322,15.664,0,14.061,0,12.354c0-1.709,0.322-3.312,0.971-4.814
		C1.619,6.035,2.5,4.729,3.613,3.615c1.111-1.111,2.42-1.992,3.922-2.641C9.037,0.324,10.643,0,12.35,0
		c1.686,0,3.279,0.324,4.781,0.975c1.502,0.648,2.809,1.529,3.924,2.641c1.111,1.113,1.992,2.42,2.643,3.924
		c0.648,1.502,0.971,3.105,0.971,4.814c0,0.625-0.08,1.275-0.242,1.945c-0.164,0.668-0.336,1.291-0.52,1.861
		c-0.184,0.574-0.436,1.229-0.762,1.963c-0.064,0.131-0.102,0.266-0.113,0.404c-0.012,0.143,0,0.275,0.033,0.406
		c0.033,0.129,0.074,0.26,0.129,0.389S23.318,19.561,23.404,19.646z M12.35,19.031c0.906,0,1.768-0.18,2.578-0.535
		c0.809-0.357,1.512-0.832,2.105-1.426c0.596-0.596,1.066-1.297,1.41-2.107c0.348-0.812,0.52-1.68,0.52-2.609
		c0-0.908-0.172-1.768-0.52-2.58c-0.344-0.809-0.814-1.516-1.41-2.121c-0.594-0.605-1.297-1.082-2.105-1.426
		c-0.811-0.346-1.672-0.52-2.578-0.52c-0.93,0-1.799,0.174-2.609,0.52C8.93,6.57,8.227,7.047,7.633,7.652s-1.07,1.312-1.426,2.121
		c-0.357,0.812-0.535,1.672-0.535,2.58c0,0.93,0.178,1.797,0.535,2.609c0.355,0.811,0.832,1.512,1.426,2.107
		c0.594,0.594,1.297,1.068,2.107,1.426C10.551,18.852,11.42,19.031,12.35,19.031z"/>
</g>
</svg>
