<?xml version="1.0" encoding="utf-8"?>
<!-- Generator: Adobe Illustrator 16.0.4, SVG Export Plug-In . SVG Version: 6.00 Build 0)  -->
<!DOCTYPE svg PUBLIC "-//W3C//DTD SVG 1.1//EN" "http://www.w3.org/Graphics/SVG/1.1/DTD/svg11.dtd">
<svg version="1.1" id="Layer_1" xmlns="http://www.w3.org/2000/svg" xmlns:xlink="http://www.w3.org/1999/xlink" x="0px" y="0px"
	 width="339.412px" height="339.412px" viewBox="0 0 339.412 339.412" enable-background="new 0 0 339.412 339.412"
	 xml:space="preserve">
<circle fill="#2ECC71" cx="169.706" cy="169.706" r="146.075"/>
<path fill="#FFFFFF" d="M169.707,0C75.98,0,0,75.98,0,169.706c0,93.727,75.98,169.706,169.707,169.706
	c93.725,0,169.706-75.979,169.706-169.706C339.412,75.98,263.432,0,169.707,0z M169.706,326.804
	c-86.762,0-157.098-70.335-157.098-157.098c0-86.762,70.336-157.098,157.098-157.098c86.763,0,157.098,70.336,157.098,157.098
	C326.804,256.469,256.469,326.804,169.706,326.804z"/>
<path fill="#2ECC71" d="M98.836,158.921"/>
<g>
	<defs>
		<circle id="SVGID_1_" cx="169.706" cy="169.706" r="146.075"/>
	</defs>
	<clipPath id="SVGID_2_">
		<use xlink:href="#SVGID_1_"  overflow="visible"/>
	</clipPath>
	<polygon clip-path="url(#SVGID_2_)" fill="#00A651" points="221.279,74.806 203.282,92.804 172.794,62.316 170.619,98.846 
		164.507,95.25 170.477,101.22 169.71,114.087 166.261,117.726 123.34,74.806 133.223,107.572 155.125,129.473 136.114,149.526 
		110.856,124.269 82.295,119.669 124.453,161.827 117.825,168.817 110.662,168.746 100.836,158.921 99.91,168.64 68.727,168.33 
		102.09,194.003 80.395,215.701 260.154,395.46 401.596,254.018 	"/>
</g>
<path fill="#FFFFFF" d="M189.805,242.93h-40.2c-2.874,0-5.202,2.319-5.202,5.193c0,2.891,2.329,5.211,5.202,5.211h40.2
	c2.875,0,5.211-2.32,5.211-5.211C195.016,245.249,192.681,242.93,189.805,242.93z"/>
<path fill="#FFFFFF" d="M189.805,255.475h-40.2c-2.874,0-5.202,2.318-5.202,5.209c0,2.874,2.329,5.209,5.202,5.209h40.2
	c2.875,0,5.211-2.335,5.211-5.209C195.016,257.793,192.681,255.475,189.805,255.475z"/>
<path fill="#FFFFFF" d="M176.867,268.018h-14.319c-2.875,0-5.211,2.336-5.211,5.211c0,2.873,2.336,5.194,5.211,5.194h14.319
	c2.874,0,5.199-2.321,5.199-5.194C182.066,270.354,179.741,268.018,176.867,268.018z"/>
<g>
	<path fill="#FFFFFF" stroke="#00A651" d="M169.71,103.684c-33.254,0-60.312,27.05-60.312,60.295
		c0,18.954,8.636,36.422,23.704,47.934c0,0,0.009,0,0.013,0.015c4.724,3.608,8.399,8.113,10.915,13.367
		c0.868,1.797,2.694,2.949,4.7,2.949h41.958c2.006,0,3.819-1.152,4.694-2.949c2.521-5.254,6.189-9.759,10.906-13.367
		c0.015-0.015,0.015-0.015,0.029-0.015c15.059-11.512,23.703-28.98,23.703-47.934C230.021,130.734,202.967,103.684,169.71,103.684z"
		/>
	<path fill="#FFFFFF" d="M136.277,213.006c0.345,0,0.687-0.045,1.009-0.119C136.963,212.961,136.622,213.006,136.277,213.006z"/>
	<path fill="#2ECC71" d="M170.721,217.826h-0.877c-0.111-5.764-0.666-22.065-3.358-37.306c1.346-0.043,2.603-0.074,3.8-0.089
		c1.175,0.015,2.454,0.046,3.793,0.089C171.378,195.761,170.84,212.062,170.721,217.826z"/>
	<path fill="#FFFFFF" d="M202.096,212.887c0.345,0.074,0.689,0.119,1.035,0.119C202.777,213.006,202.44,212.961,202.096,212.887z"/>
	<path fill="#2ECC71" d="M199.978,203.648c-0.007,0.016-0.015,0.016-0.015,0.016c-5.128,3.922-9.287,8.683-12.409,14.162h-7.388
		c0.136-12.516,1.408-26.196,3.519-37.306c5.343-0.328,10.659-1.511,14.625-4.97c8.458-7.377,8.219-17.08,3.698-22.482
		c-4.192-4.97-10.998-5.555-16.198-1.348c-4.387,3.547-7.501,10.839-9.701,19.386c-0.538,0-11.115,0-11.645,0
		c-2.215-8.547-5.329-15.839-9.714-19.386c-5.188-4.207-12.006-3.622-16.185,1.348c-4.528,5.403-4.774,15.105,3.683,22.482
		c3.981,3.459,9.289,4.642,14.625,4.97c2.11,11.109,3.385,24.79,3.519,37.306h-8.532c-3.113-5.465-7.26-10.225-12.389-14.146
		c-0.014,0-0.022-0.016-0.029-0.031c-12.476-9.518-19.633-23.979-19.633-39.669c0-27.498,22.38-49.892,49.901-49.892
		c27.514,0,49.893,22.395,49.893,49.892C219.604,179.669,212.44,194.131,199.978,203.648z"/>
	<path fill="#2ECC71" d="M185.973,170.776c1.664-5.716,3.608-9.924,5.788-11.691c1.205-0.972,2.125-0.944,2.979,0.077
		c1.355,1.614,1.771,5.403-2.642,9.235C190.63,169.684,188.452,170.403,185.973,170.776z"/>
	<path fill="#2ECC71" d="M154.597,170.776c-2.483-0.373-4.652-1.092-6.137-2.379c-4.401-3.832-3.998-7.622-2.646-9.235
		c0.868-1.021,1.778-1.049,2.983-0.077C150.976,160.852,152.936,165.06,154.597,170.776z"/>
</g>
<path fill="#FFFFFF" d="M189.805,230.371h-40.2c-2.874,0-5.202,2.334-5.202,5.224c0,2.874,2.329,5.193,5.202,5.193h40.2
	c2.875,0,5.211-2.319,5.211-5.193C195.016,232.705,192.681,230.371,189.805,230.371z"/>
<path fill="#FFFFFF" stroke="#00A651" d="M129.763,105.36c1.438,2.484,4.621,3.339,7.111,1.902c2.5-1.438,3.34-4.626,1.911-7.112
	l-13.526-23.442c-1.445-2.484-4.626-3.338-7.12-1.902c-2.492,1.438-3.345,4.612-1.908,7.112L129.763,105.36z"/>
<path fill="#FFFFFF" stroke="#00A651" d="M233.682,133.204l23.441-13.534c2.486-1.437,3.34-4.625,1.91-7.11
	c-1.446-2.485-4.627-3.354-7.119-1.901l-23.441,13.534c-2.486,1.42-3.338,4.609-1.9,7.094
	C228.009,133.788,231.197,134.641,233.682,133.204z"/>
<path fill="#FFFFFF" stroke="#00A651" d="M82.295,119.669l23.437,13.534c2.49,1.437,5.67,0.584,7.116-1.917
	c1.437-2.484,0.584-5.673-1.916-7.094l-23.435-13.534c-2.492-1.453-5.673-0.584-7.103,1.901
	C78.95,115.044,79.795,118.233,82.295,119.669z"/>
<path fill="#FFFFFF" stroke="#00A651" d="M202.539,107.262c2.492,1.437,5.672,0.582,7.111-1.902l13.537-23.442
	c1.438-2.5,0.585-5.674-1.908-7.112c-2.498-1.437-5.682-0.583-7.117,1.902L200.63,100.15
	C199.193,102.636,200.045,105.825,202.539,107.262z"/>
<path fill="#FFFFFF" stroke="#00A651" d="M169.71,98.459c2.874,0,5.201-2.321,5.201-5.21v-27.05c0-2.874-2.327-5.21-5.201-5.21
	c-2.883,0-5.216,2.336-5.216,5.21l0.012,27.05C164.507,96.138,166.828,98.459,169.71,98.459z"/>
<path fill="#FFFFFF" stroke="#00A651" d="M257.123,208.576l-23.441-13.52c-2.484-1.437-5.673-0.584-7.109,1.901
	c-1.438,2.486-0.586,5.675,1.9,7.111l23.441,13.534c2.492,1.437,5.673,0.581,7.119-1.901
	C260.463,213.201,259.609,210.025,257.123,208.576z"/>
<path fill="#FFFFFF" stroke="#00A651" d="M267.635,158.921h-27.058c-2.882,0-5.202,2.32-5.202,5.193c0,2.874,2.32,5.21,5.202,5.21
	h27.058c2.873,0,5.207-2.336,5.207-5.21C272.842,161.241,270.508,158.921,267.635,158.921z"/>
<path fill="#FFFFFF" stroke="#00A651" d="M105.732,195.056l-23.437,13.52c-2.484,1.449-3.345,4.625-1.9,7.125
	c1.43,2.482,4.618,3.338,7.103,1.901l23.435-13.534c2.5-1.437,3.353-4.625,1.916-7.111
	C111.402,194.472,108.222,193.62,105.732,195.056z"/>
<path fill="#FFFFFF" stroke="#00A651" d="M104.048,164.114c0-2.874-2.336-5.193-5.211-5.193H71.78c-2.882,0-5.209,2.32-5.209,5.193
	c0,2.874,2.327,5.21,5.209,5.21h27.056C101.712,169.324,104.048,166.988,104.048,164.114z"/>
</svg>
