<?xml version="1.0" encoding="utf-8"?>
<!-- Generator: Adobe Illustrator 16.0.4, SVG Export Plug-In . SVG Version: 6.00 Build 0)  -->
<!DOCTYPE svg PUBLIC "-//W3C//DTD SVG 1.1//EN" "http://www.w3.org/Graphics/SVG/1.1/DTD/svg11.dtd">
<svg version="1.1" id="Layer_1" xmlns="http://www.w3.org/2000/svg" xmlns:xlink="http://www.w3.org/1999/xlink" x="0px" y="0px"
	 width="21.623px" height="33.147px" viewBox="0 0 21.623 33.147" enable-background="new 0 0 21.623 33.147" xml:space="preserve">
<path fill="#00A651" d="M21.623,10.813C21.623,4.836,16.781,0,10.812,0C4.842,0,0,4.836,0,10.813c0,0.102,0.012,0.205,0.018,0.307
	c0,0.008-0.006,0.008-0.006,0.008c0,0.24,0.016,0.494,0.043,0.754c0.006,0.047,0.014,0.096,0.018,0.145
	c0.029,0.217,0.061,0.447,0.107,0.684c0.027,0.162,0.057,0.324,0.092,0.488c1.652,7.322,10.541,19.949,10.541,19.949
	s7.982-11.557,10.225-18.844c0.18-0.533,0.318-1.076,0.416-1.631c0.107-0.557,0.17-1.074,0.17-1.545
	c0-0.031-0.008-0.061-0.008-0.098C21.615,10.958,21.623,10.885,21.623,10.813z M10.812,16.452c-3.162,0-5.723-2.561-5.723-5.725
	c0-3.156,2.561-5.722,5.723-5.722c3.16,0,5.725,2.566,5.725,5.722C16.537,13.891,13.973,16.452,10.812,16.452z"/>
</svg>
