<?xml version="1.0" encoding="utf-8"?>
<!-- Generator: Adobe Illustrator 16.0.4, SVG Export Plug-In . SVG Version: 6.00 Build 0)  -->
<!DOCTYPE svg PUBLIC "-//W3C//DTD SVG 1.1//EN" "http://www.w3.org/Graphics/SVG/1.1/DTD/svg11.dtd">
<svg version="1.1" id="Layer_1" xmlns="http://www.w3.org/2000/svg" xmlns:xlink="http://www.w3.org/1999/xlink" x="0px" y="0px"
	 width="675.881px" height="860.702px" viewBox="0 0 675.881 860.702" enable-background="new 0 0 675.881 860.702"
	 xml:space="preserve">
<polygon fill="#5AB6F9" points="675.881,182.724 566.893,73.659 13.957,601.485 273.343,860.702 675.881,860.702 "/>
<g>
	<path fill="#FFFFFF" d="M550.203,69.767H25.867C12.134,69.767,1,80.96,1,94.767v484.879c0,13.807,11.134,25,24.867,25h382.621
		v49.728l88.786-49.728h52.929c13.734,0,24.867-11.193,24.867-25V94.767C575.07,80.96,563.938,69.767,550.203,69.767z"/>
	<path fill="#3285E1" d="M407.488,656.079v-50.434H25.867c-14.263,0-25.867-11.663-25.867-26V94.767c0-14.336,11.604-26,25.867-26
		h524.336c14.264,0,25.867,11.664,25.867,26v484.879c0,14.337-11.604,26-25.867,26h-52.668L407.488,656.079z M25.867,70.767
		C12.707,70.767,2,81.533,2,94.767v484.879c0,13.233,10.707,24,23.867,24h383.621v49.021l87.525-49.021h53.189
		c13.16,0,23.867-10.767,23.867-24V94.767c0-13.233-10.707-24-23.867-24H25.867z"/>
</g>
<g>
	<circle fill="#2ECC71" cx="286.63" cy="97" r="96"/>
	<path fill="#FFFFFF" d="M286.63,194c-53.486,0-97-43.514-97-97s43.514-97,97-97s97,43.514,97,97S340.116,194,286.63,194z M286.63,2
		c-52.383,0-95,42.617-95,95s42.617,95,95,95s95-42.617,95-95S339.013,2,286.63,2z"/>
</g>
<g>
	<path fill="#FFFFFF" d="M320.705,74.88V60.323c0-18.718-15.234-33.943-33.953-33.943c-18.717,0-33.941,15.226-33.941,33.943v14.555
		c-5.354,2.379-9.092,7.729-9.092,13.974v27.487h-0.262v27.979c0,8.453,6.85,15.302,15.297,15.302h0.262h55.215h0.26
		c8.455,0,15.312-6.849,15.312-15.302V88.852C329.803,82.608,326.062,77.26,320.705,74.88z M286.752,37.857
		c12.395,0,22.477,10.078,22.477,22.466v13.233h-44.943V60.323C264.285,47.936,274.365,37.857,286.752,37.857z"/>
	<polygon fill="#2ECC71" points="317.486,103.441 309.973,95.916 277.107,128.788 268.133,119.811 260.623,127.33 277.049,143.757 
		277.053,143.744 277.115,143.807 	"/>
</g>
</svg>
