<?xml version="1.0" encoding="utf-8"?>
<!-- Generator: Adobe Illustrator 16.0.4, SVG Export Plug-In . SVG Version: 6.00 Build 0)  -->
<!DOCTYPE svg PUBLIC "-//W3C//DTD SVG 1.1//EN" "http://www.w3.org/Graphics/SVG/1.1/DTD/svg11.dtd">
<svg version="1.1" id="Layer_1" xmlns="http://www.w3.org/2000/svg" xmlns:xlink="http://www.w3.org/1999/xlink" x="0px" y="0px"
	 width="332.568px" height="388.631px" viewBox="0 0 332.568 388.631" enable-background="new 0 0 332.568 388.631"
	 xml:space="preserve">
<polygon fill="#5AB6F9" points="332.568,388.631 332.568,67.17 276.788,11.644 5.543,256.91 137.491,388.479 331.206,388.479 "/>
<g>
	<path fill="#3285E1" d="M257.427,0.499H25.52c-13.819,0-25.02,12.31-25.02,27.494v213.056c0,15.185,11.201,27.492,25.02,27.492
		h177.544v21.039l37.564-21.039h16.799c13.819,0,25.02-12.308,25.02-27.492V27.993C282.447,12.809,271.247,0.499,257.427,0.499z"/>
	<path fill="#5AB6F9" d="M202.563,290.433v-21.391H25.52C11.448,269.042,0,256.482,0,241.048V27.993C0,12.557,11.448,0,25.52,0
		h231.908c14.07,0,25.519,12.557,25.519,27.993v213.056c0,15.434-11.448,27.993-25.519,27.993h-16.67L202.563,290.433z M25.52,1
		C12,1,1.001,13.109,1.001,27.993v213.056C1.001,255.93,12,268.04,25.52,268.04h178.045v20.686l36.932-20.686h16.931
		c13.521,0,24.519-12.11,24.519-26.991V27.993C281.946,13.109,270.948,1,257.427,1H25.52z"/>
</g>
<path opacity="0.1" fill="#FFFFFF" d="M159.038,203.1h-39.239c-2.81,0-5.076,2.257-5.076,5.067c0,2.812,2.266,5.084,5.076,5.084
	h39.239c2.803,0,5.084-2.272,5.084-5.084C164.122,205.357,161.841,203.1,159.038,203.1z M159.038,215.343h-39.239
	c-2.81,0-5.076,2.26-5.076,5.086c0,2.793,2.266,5.084,5.076,5.084h39.239c2.803,0,5.084-2.292,5.084-5.084
	C164.122,217.603,161.841,215.343,159.038,215.343z M146.405,227.582h-13.974c-2.81,0-5.084,2.283-5.084,5.084
	c0,2.804,2.275,5.078,5.084,5.078h13.974c2.803,0,5.078-2.274,5.078-5.078C151.483,229.865,149.208,227.582,146.405,227.582z
	 M139.427,67.187c-32.465,0-58.865,26.4-58.865,58.858c0,18.489,8.423,35.541,23.131,46.778c0,0,0.009,0,0.018,0.015
	c4.61,3.528,8.194,7.918,10.649,13.043c0.842,1.75,2.629,2.881,4.587,2.881h40.944c1.965,0,3.726-1.131,4.585-2.881
	c2.464-5.125,6.041-9.515,10.65-13.043c0.017-0.015,0.017-0.015,0.026-0.015c14.692-11.237,23.139-28.29,23.139-46.778
	C198.292,93.587,171.876,67.187,139.427,67.187z M106.79,173.885c0.337,0,0.668-0.039,0.987-0.116
	C107.458,173.847,107.127,173.885,106.79,173.885z M140.407,178.593h-0.856c-0.107-5.622-0.645-21.537-3.276-36.412
	c1.32-0.041,2.543-0.071,3.711-0.086c1.148,0.015,2.395,0.045,3.704,0.086C141.052,157.057,140.532,172.972,140.407,178.593z
	 M171.029,173.769c0.34,0.078,0.671,0.116,1.013,0.116C171.7,173.885,171.369,173.847,171.029,173.769z M168.961,164.764
	c-0.009,0.013-0.009,0.013-0.009,0.013c-5.005,3.82-9.07,8.473-12.116,13.817h-7.211c0.129-12.215,1.376-25.563,3.436-36.412
	c5.22-0.314,10.396-1.468,14.275-4.856c8.251-7.193,8.021-16.657,3.607-21.939c-4.089-4.848-10.728-5.416-15.806-1.312
	c-4.28,3.465-7.327,10.579-9.474,18.917c-0.521,0-10.846,0-11.362,0c-2.163-8.337-5.202-15.451-9.48-18.917
	c-5.061-4.104-11.717-3.537-15.797,1.312c-4.416,5.282-4.661,14.746,3.59,21.939c3.887,3.388,9.072,4.542,14.275,4.856
	c2.068,10.848,3.309,24.196,3.444,36.412h-8.331c-3.04-5.329-7.093-9.979-12.097-13.8c-0.004,0-0.021-0.017-0.021-0.03
	c-12.175-9.296-19.169-23.412-19.169-38.719c0-26.843,21.846-48.696,48.712-48.696c26.852,0,48.698,21.853,48.698,48.696
	C188.125,141.352,181.129,155.468,168.961,164.764z M155.297,132.677c1.625-5.583,3.519-9.687,5.65-11.409
	c1.169-0.95,2.07-0.924,2.906,0.069c1.32,1.58,1.72,5.275-2.582,9.008C159.841,131.603,157.711,132.305,155.297,132.677z
	 M124.67,132.677c-2.425-0.372-4.541-1.075-5.992-2.333c-4.293-3.732-3.902-7.428-2.582-9.008c0.843-0.993,1.737-1.019,2.913-0.069
	C121.14,122.99,123.054,127.094,124.67,132.677z M159.038,190.839h-39.239c-2.81,0-5.076,2.281-5.076,5.1
	c0,2.801,2.266,5.069,5.076,5.069h39.239c2.803,0,5.084-2.268,5.084-5.069C164.122,193.12,161.841,190.839,159.038,190.839z
	 M100.433,68.82c1.405,2.432,4.508,3.268,6.939,1.862c2.44-1.397,3.261-4.517,1.862-6.946L96.036,40.864
	C94.63,38.441,91.52,37.603,89.088,39c-2.433,1.406-3.269,4.51-1.864,6.948L100.433,68.82z M201.862,96.003l22.879-13.208
	c2.421-1.406,3.251-4.515,1.862-6.939c-1.411-2.425-4.515-3.276-6.948-1.855l-22.879,13.208c-2.434,1.38-3.259,4.5-1.855,6.925
	C196.318,96.579,199.429,97.407,201.862,96.003z M54.105,82.794l22.872,13.208c2.432,1.404,5.534,0.576,6.947-1.87
	c1.406-2.425,0.568-5.544-1.87-6.925L59.182,74c-2.431-1.421-5.542-0.57-6.932,1.855C50.845,78.28,51.666,81.389,54.105,82.794z
	 M171.463,70.682c2.434,1.406,5.542,0.57,6.932-1.862l13.217-22.872c1.406-2.438,0.567-5.542-1.853-6.948
	c-2.442-1.397-5.551-0.559-6.957,1.864l-13.2,22.873C168.196,66.166,169.034,69.285,171.463,70.682z M139.427,62.096
	c2.803,0,5.069-2.268,5.069-5.095V30.611c0-2.814-2.266-5.086-5.069-5.086c-2.812,0-5.1,2.272-5.1,5.086L134.34,57
	C134.34,59.828,136.615,62.096,139.427,62.096z M224.741,169.56l-22.879-13.191c-2.433-1.397-5.544-0.57-6.941,1.855
	c-1.404,2.432-0.578,5.544,1.855,6.942l22.879,13.215c2.434,1.395,5.537,0.567,6.948-1.864
	C227.992,174.077,227.162,170.983,224.741,169.56z M234.996,121.103h-26.409c-2.812,0-5.075,2.266-5.075,5.069
	c0,2.801,2.264,5.08,5.075,5.08h26.409c2.804,0,5.085-2.279,5.085-5.08C240.081,123.368,237.799,121.103,234.996,121.103z
	 M76.977,156.369L54.105,169.56c-2.424,1.423-3.26,4.517-1.855,6.957c1.39,2.432,4.508,3.259,6.932,1.864l22.873-13.215
	c2.438-1.397,3.276-4.51,1.87-6.942C82.511,155.799,79.409,154.971,76.977,156.369z M75.334,126.172
	c0-2.804-2.273-5.069-5.083-5.069h-26.41c-2.81,0-5.084,2.266-5.084,5.069c0,2.801,2.274,5.08,5.084,5.08h26.41
	C73.061,131.252,75.334,128.973,75.334,126.172z"/>
</svg>
