<?xml version="1.0" encoding="utf-8"?>
<!-- Generator: Adobe Illustrator 16.0.4, SVG Export Plug-In . SVG Version: 6.00 Build 0)  -->
<!DOCTYPE svg PUBLIC "-//W3C//DTD SVG 1.1//EN" "http://www.w3.org/Graphics/SVG/1.1/DTD/svg11.dtd">
<svg version="1.1" id="Layer_1" xmlns="http://www.w3.org/2000/svg" xmlns:xlink="http://www.w3.org/1999/xlink" x="0px" y="0px"
	 width="328.706px" height="384.784px" viewBox="0 0 328.706 384.784" enable-background="new 0 0 328.706 384.784"
	 xml:space="preserve">
<polygon fill="#00A651" points="328.706,383.545 328.706,62.882 272.77,6.956 1.646,252.718 133.715,384.784 327.43,384.784 "/>
<g>
	<path fill="#2ECC71" d="M257.429,0.499H25.519c-13.817,0-25.018,12.31-25.018,27.494v213.056c0,15.184,11.201,27.492,25.018,27.492
		h177.545v21.038l37.564-21.038h16.801c13.817,0,25.018-12.308,25.018-27.492V27.993C282.446,12.809,271.246,0.499,257.429,0.499z"
		/>
	<path fill="#00A651" d="M202.564,290.433v-21.391H25.519C11.448,269.042,0,256.482,0,241.049V27.993C0,12.557,11.448,0,25.519,0
		h231.91c14.068,0,25.519,12.557,25.519,27.993v213.056c0,15.434-11.45,27.993-25.519,27.993h-16.672L202.564,290.433z M25.519,1
		C11.999,1,1,13.11,1,27.993v213.056c0,14.881,10.999,26.991,24.519,26.991h178.046v20.686l36.932-20.686h16.933
		c13.518,0,24.517-12.11,24.517-26.991V27.993C281.945,13.11,270.947,1,257.429,1H25.519z"/>
</g>
<path opacity="0.3" fill="#00A551" d="M194.333,102.135V80.408c0-27.931-22.73-50.654-50.672-50.654
	c-27.933,0-50.652,22.724-50.652,50.654v21.722c-7.991,3.549-13.565,11.541-13.565,20.855v41.023H79.05v41.765
	c0,12.609,10.223,22.832,22.831,22.832h0.396h82.408h0.378c12.618,0,22.857-10.223,22.857-22.832v-82.788
	C207.92,113.671,202.337,105.69,194.333,102.135z M110.139,80.408c0-18.482,15.04-33.52,33.522-33.52
	c18.508,0,33.546,15.038,33.546,33.52v19.753h-67.068V80.408z M129.294,205.009l-0.104-0.095l-0.008,0.021l-24.513-24.521
	l11.209-11.227l13.397,13.398l49.047-49.06l11.215,11.242L129.294,205.009z"/>
</svg>
